<svg  viewBox="0 0 33 53" fill="none" xmlns="http://www.w3.org/2000/svg">
<path d="M0 16.9248C0.522015 11.872 2.26234 7.78624 5.23356 4.66462C8.19199 1.55274 12.246 0 17.3732 0C19.8962 0 22.1523 0.443253 24.0956 1.34239C26.0389 2.232 27.6792 3.4419 28.9876 4.96213C30.2928 6.46952 31.3015 8.18084 31.9815 10.0959C32.6582 12.0142 33 13.9972 33 16.0383C33 17.8239 32.7971 19.4317 32.3685 20.8551C31.9364 22.2784 31.3469 23.5432 30.5766 24.6431C29.8031 25.769 28.9202 26.7911 27.8729 27.7486C26.8577 28.7192 25.7429 29.628 24.5341 30.4885C22.2973 32.2286 19.9709 33.8945 17.5893 35.499C15.1981 37.1035 12.9035 38.9215 10.7058 40.9497C9.90654 41.71 9.24922 42.4896 8.727 43.3209C8.21138 44.1525 7.77949 45.1906 7.43465 46.4299H31.6431V53H0.522017V47.9892C0.522017 45.9092 1.17954 43.8486 2.50716 41.8657C3.83499 39.8504 5.48498 37.8931 7.48291 36.0234C9.46805 34.1537 11.6467 32.3325 14.0377 30.5663C16.432 28.8032 18.6847 27.0952 20.8214 25.4359C22.4392 24.197 23.7153 22.8772 24.6725 21.4538C25.6039 20.0338 26.0872 18.219 26.0872 15.9998C26.0872 12.8587 25.3009 10.4035 23.667 8.64376C22.0622 6.88731 19.9674 6.00743 17.3732 6.00743C14.2054 6.00743 11.6949 6.9811 9.85477 8.92843C7.99853 10.8693 7.0832 13.5349 7.0832 16.925L0 16.9248Z" fill="#3E1B1B"/>
</svg>
