<svg width="33" height="53" viewBox="0 0 33 53" fill="none" xmlns="http://www.w3.org/2000/svg">
<path d="M1.40786 15.896C1.96226 10.9144 3.40271 7.00984 5.72633 4.19879C8.04973 1.40077 11.7171 0 16.7574 0C21.1208 0 24.5821 1.23576 27.1215 3.70067C29.6608 6.16557 30.9307 9.44576 30.9307 13.5282C30.9307 16.4525 30.4023 18.7816 29.3259 20.5219C28.2466 22.2558 26.5512 23.6079 24.215 24.5849C25.3333 24.9472 26.4097 25.4647 27.4506 26.1376C28.5207 26.8104 29.4583 27.6709 30.2705 28.7449C31.1083 29.8124 31.7693 31.0707 32.2781 32.5427C32.7616 34.0016 33 35.7225 33 37.7381C33 40.2581 32.5714 42.4352 31.7142 44.3113C30.8315 46.2135 29.6552 47.8112 28.1921 49.0695C26.7001 50.357 24.9659 51.334 23.0262 52.0069C21.0604 52.6762 18.9686 53 16.7578 53C12.2267 53 8.47564 51.5543 5.51719 48.6559C2.55874 45.7608 0.721875 41.5034 0 35.82H6.71591C7.37344 39.9606 8.5173 42.8688 10.119 44.5571C11.7175 46.2197 13.9411 47.0543 16.7578 47.0543C18.0275 47.0543 19.2522 46.8437 20.4091 46.4233C21.5725 46.0059 22.578 45.3848 23.464 44.5567C24.3534 43.7285 25.0592 42.7485 25.6074 41.6001C26.123 40.4225 26.3709 39.1354 26.3709 37.7379C26.3709 34.9395 25.5201 32.5586 23.7928 30.6082C22.0912 28.6673 19.7418 27.6903 16.758 27.6903H12.9391V21.7446H16.758C18.1438 21.7446 19.3201 21.5247 20.2865 21.0653C21.2468 20.6028 22.0364 20.0107 22.6487 19.2797C23.2578 18.5551 23.6864 17.727 23.9316 16.8212C24.1991 15.896 24.3022 14.9838 24.3022 14.0781C24.3022 11.5161 23.5997 9.50083 22.1882 8.04189C20.7799 6.57653 18.9043 5.84861 16.5806 5.84861C15.1466 5.84861 13.9413 6.11381 12.9391 6.67342C11.9466 7.22018 11.1086 7.9479 10.448 8.85697C9.79048 9.77888 9.26846 10.8432 8.87535 12.0626C8.49193 13.2789 8.21143 14.5696 8.05035 15.896H1.40786Z" fill="#3E1B1B"/>
</svg>
