<svg width="18" height="25" viewBox="0 0 18 25" fill="none" xmlns="http://www.w3.org/2000/svg">
<path d="M0.812029 13.2662L2.52587 0H16.4829V2.83509H5.09932L4.33116 9.68175L4.4683 9.72902C5.12576 9.17813 5.8992 8.78604 6.79212 8.5541C7.67806 8.32217 8.56051 8.20312 9.43239 8.20312C10.6664 8.20312 11.8072 8.42129 12.8637 8.85928C13.9061 9.28956 14.8166 9.88771 15.5725 10.6446C16.33 11.4014 16.9312 12.2941 17.3619 13.3301C17.7891 14.3586 18 15.4572 18 16.6244C18 17.7003 17.8137 18.7317 17.434 19.7479C17.0368 20.7489 16.4602 21.6354 15.7025 22.4335C14.9449 23.2147 13.9816 23.8327 12.8162 24.2966C11.6455 24.7604 10.2762 25 8.71172 25C6.51447 25 4.6195 24.3957 3.02694 23.2147C1.4273 22.02 0.418278 20.2682 0 17.9717H3.65807C3.9868 19.2855 4.60904 20.3124 5.5302 21.0479C6.44955 21.7834 7.5236 22.1664 8.75402 22.1664C9.59777 22.1664 10.366 22.0199 11.0515 21.7269C11.7511 21.437 12.34 21.0449 12.8409 20.5534C13.3278 20.0499 13.7216 19.4577 13.9834 18.7543C14.2594 18.0631 14.3878 17.3155 14.3878 16.5311C14.3878 15.7207 14.2312 14.9823 13.899 14.3077C13.5545 13.6439 13.1222 13.0642 12.565 12.5849C12.0112 12.1073 11.3697 11.7304 10.649 11.4496C9.92627 11.1787 9.18984 11.0353 8.43744 11.0353C7.59717 11.0353 6.78154 11.2154 5.99752 11.5602C5.21699 11.9126 4.55616 12.4757 4.0147 13.2662H0.812029Z" fill="#3E1B1B"/>
</svg>
