<svg width="18" height="25" viewBox="0 0 18 25" fill="none" xmlns="http://www.w3.org/2000/svg">
<path d="M0 7.9834C0.284736 5.6 1.234 3.67275 2.85467 2.20029C4.46836 0.732422 6.67965 0 9.47627 0C10.8525 0 12.0831 0.209081 13.1431 0.633202C14.203 1.05283 15.0977 1.62354 15.8114 2.34063C16.5233 3.05166 17.0736 3.85889 17.4445 4.76221C17.8136 5.66709 18 6.60244 18 7.56523C18 8.40752 17.8893 9.16592 17.6555 9.8373C17.4198 10.5087 17.0983 11.1053 16.6781 11.6241C16.2563 12.1552 15.7747 12.6373 15.2034 13.089C14.6497 13.5468 14.0416 13.9755 13.3822 14.3813C12.1622 15.2022 10.8932 15.988 9.59417 16.7448C8.28985 17.5017 7.03829 18.3592 5.8395 19.3159C5.40357 19.6745 5.04503 20.0423 4.76018 20.4344C4.47893 20.8267 4.24336 21.3163 4.05526 21.9009H17.2599V25H0.284736V22.6364C0.284736 21.6553 0.643384 20.6833 1.36754 19.7479C2.09181 18.7974 2.99181 17.8741 4.08159 16.9922C5.16439 16.1103 6.35272 15.2512 7.65693 14.4181C8.96293 13.5864 10.1916 12.7808 11.3571 11.998C12.2396 11.4137 12.9356 10.7911 13.4577 10.1197C13.9658 9.4499 14.2294 8.59385 14.2294 7.54707C14.2294 6.06543 13.8005 4.90732 12.9093 4.07725C12.0339 3.24873 10.8913 2.83369 9.47627 2.83369C7.74839 2.83369 6.37905 3.29297 5.37533 4.21152C4.36284 5.12705 3.86356 6.38438 3.86356 7.9835L0 7.9834Z" fill="#3E1B1B"/>
</svg>
