<svg width="18" height="25" viewBox="0 0 18 25" fill="none" xmlns="http://www.w3.org/2000/svg">
<path d="M0.767925 7.49812C1.07033 5.14832 1.85603 3.30653 3.12345 1.98056C4.39076 0.66074 6.39112 0 9.1404 0C11.5204 0 13.4084 0.582908 14.7935 1.7456C16.1786 2.90829 16.8713 4.45555 16.8713 6.38122C16.8713 7.76061 16.5831 8.85924 15.9959 9.68014C15.4072 10.498 14.4825 11.1358 13.2082 11.5966C13.8181 11.7675 14.4053 12.0117 14.9731 12.3291C15.5567 12.6464 16.0681 13.0523 16.5112 13.5589C16.9681 14.0624 17.3287 14.656 17.6063 15.3503C17.87 16.0385 18 16.8502 18 17.801C18 18.9897 17.7662 20.0166 17.2987 20.9016C16.8172 21.7988 16.1756 22.5524 15.3775 23.146C14.5637 23.7533 13.6178 24.2142 12.5597 24.5315C11.4875 24.8473 10.3465 25 9.14063 25C6.66911 25 4.62307 24.3181 3.00937 22.9509C1.39567 21.5853 0.39375 19.5771 0 16.8962H3.66322C4.02187 18.8493 4.6458 20.2211 5.51947 21.0175C6.39135 21.8018 7.60421 22.1954 9.14063 22.1954C9.83318 22.1954 10.5012 22.0961 11.1322 21.8978C11.7668 21.7009 12.3153 21.4079 12.7986 21.0173C13.2837 20.6267 13.6686 20.1644 13.9677 19.6227C14.2489 19.0672 14.3841 18.4601 14.3841 17.8009C14.3841 16.4809 13.9201 15.3578 12.9779 14.4378C12.0498 13.5223 10.7683 13.0615 9.14074 13.0615H7.05769V10.2569H9.14074C9.89662 10.2569 10.5382 10.1532 11.0654 9.93648C11.5892 9.71832 12.0198 9.43902 12.3538 9.0942C12.6861 8.75241 12.9198 8.36178 13.0536 7.93454C13.1995 7.49812 13.2558 7.06784 13.2558 6.6406C13.2558 5.43211 12.8726 4.48152 12.1026 3.79334C11.3345 3.10214 10.3114 2.75878 9.04399 2.75878C8.26178 2.75878 7.60432 2.88387 7.05769 3.14784C6.51634 3.40575 6.05925 3.74901 5.69891 4.17782C5.34026 4.61268 5.05552 5.11473 4.8411 5.68992C4.63196 6.26365 4.47896 6.87243 4.3911 7.49812H0.767925Z" fill="#3E1B1B"/>
</svg>
