<svg width="33" height="53" viewBox="0 0 33 53" fill="none" xmlns="http://www.w3.org/2000/svg">
<path d="M1.48872 28.1243L4.63075 0H30.2187V6.0104H9.34875L7.94047 20.5253L8.19189 20.6255C9.39722 19.4576 10.8152 18.6264 12.4522 18.1347C14.0764 17.643 15.6943 17.3906 17.2927 17.3906C19.5551 17.3906 21.6465 17.8531 23.5834 18.7817C25.4945 19.6939 27.1637 20.962 28.5495 22.5665C29.9384 24.171 31.0406 26.0635 31.8301 28.2599C32.6133 30.4402 33 32.7693 33 35.2438C33 37.5246 32.6584 39.7111 31.9623 41.8655C31.2341 43.9876 30.177 45.8671 28.7879 47.5589C27.399 49.2152 25.6329 50.5253 23.4964 51.5087C21.3501 52.4921 18.8396 53 15.9715 53C11.9432 53 8.46909 51.7189 5.5494 49.2152C2.61671 46.6824 0.766842 42.9686 0 38.1H6.70647C7.30913 40.8852 8.44991 43.0624 10.1387 44.6216C11.8242 46.1807 13.7933 46.9927 16.049 46.9927C17.5959 46.9927 19.0044 46.6822 20.2611 46.0611C21.5438 45.4464 22.6233 44.6151 23.5417 43.5731C24.4344 42.5059 25.1563 41.2504 25.6362 39.7592C26.1421 38.2938 26.3777 36.7089 26.3777 35.0458C26.3777 33.3279 26.0906 31.7625 25.4815 30.3323C24.85 28.9251 24.0574 27.6961 23.0358 26.68C22.0206 25.6674 20.8444 24.8685 19.5231 24.2732C18.1982 23.6989 16.848 23.3948 15.4686 23.3948C13.9281 23.3948 12.4328 23.7766 10.9955 24.5076C9.56449 25.2548 8.35297 26.4485 7.36028 28.1243H1.48872Z" fill="#3E1B1B"/>
</svg>
