<svg width="77" height="137" viewBox="0 0 77 137" fill="none" xmlns="http://www.w3.org/2000/svg">
<path d="M19.8399 42.4434C19.8954 42.1012 19.9797 41.7493 20.0439 41.3886C20.3641 39.6544 20.305 37.9321 19.9991 36.238C19.6708 34.3912 18.9318 32.7971 18.2857 31.1152C18.1283 30.7043 17.8783 29.8158 17.5652 29.1205C16.885 31.4291 16.4976 33.657 16.9399 36.1111C17.2033 37.5457 18.4353 41.1601 19.8399 42.4434Z" fill="#CBD0E3"/>
<path d="M25.2542 47.0292C24.5272 47.5356 23.8022 48.0811 23.1367 48.7025C22.915 48.9133 19.7828 52.9535 20.1244 53.0965C20.4374 53.2268 20.2988 53.426 20.0458 53.5682C20.7317 53.7247 21.2184 53.7969 22.0376 53.4629C23.1937 52.9917 23.9066 52.2963 24.5843 51.0834C25.4495 49.5352 26.1388 47.7196 26.7582 45.9924C26.2151 46.2765 25.6359 46.7678 25.2542 47.0292Z" fill="#CBD0E3"/>
<path d="M13.2324 79.4984C13.0676 79.51 12.7648 79.6103 12.6882 79.8198C12.6759 79.8484 12.6682 79.8763 12.6604 79.9043C12.456 79.8621 12.243 79.8318 12.0348 79.8063C12.0319 79.839 12.0293 79.877 12.0264 79.9097C11.9899 80.3612 12.8605 80.13 13.0247 80.0162C13.2244 79.8761 13.4038 79.7011 13.5679 79.4959C13.5029 79.4832 13.429 79.4771 13.342 79.4835C13.3057 79.4938 13.2692 79.4988 13.2324 79.4984Z" fill="#CBD0E3"/>
<path d="M25.7263 19.7552C25.7865 19.4701 26.2584 19.4038 26.4355 19.4071C26.4728 19.4075 26.5101 19.4079 26.5474 19.4083C26.9998 19.4181 27.0211 19.6578 26.854 19.8563C26.847 19.9024 26.8402 19.9542 26.8379 19.9997C26.906 20.0578 26.9382 20.1436 26.8973 20.2566C26.8732 20.3334 26.8352 20.4121 26.8062 20.4839C26.8013 21.5966 27.2045 22.9511 27.7111 23.5799C28.7096 24.8224 30.8094 23.7765 31.2721 22.1309C31.5133 21.2728 31.7239 18.7765 30.0158 19.3666C29.6358 19.4991 28.8614 19.1055 29.5346 18.7795C30.9722 18.0919 32.4554 17.6632 32.9535 15.6063C33.6766 12.6484 30.8154 12.3507 29.9416 14.6242C29.7852 15.0357 28.6921 15.1611 28.8034 14.5923C29.0344 13.4365 29.2833 12.2669 28.8424 11.183C28.2631 9.7517 27.8654 9.7173 26.5649 10.0751C25.1908 10.4489 24.9967 10.5722 24.9933 12.1814C24.993 12.7346 25.1102 13.2149 25.0825 13.7776C25.0585 14.3229 24.1492 14.304 23.9398 14.0286C22.6895 12.4094 19.7356 13.9818 20.7899 16.1536C20.8311 16.2325 21.4339 16.921 21.9988 17.2255C22.4761 16.989 23.017 16.9073 23.4792 16.927C23.6847 16.9376 24.073 17.0637 23.8522 17.3995C23.5404 17.8724 22.9876 17.9952 22.4375 17.9879C21.0794 19.6126 23.4102 26.4424 25.6148 20.6006C25.634 20.3326 25.6665 20.0515 25.7263 19.7552Z" fill="#FFAFC8"/>
<path d="M27.3457 20.8339C24.5888 27.6391 22.5794 34.6768 20.8677 41.7766C19.1954 48.6975 17.9467 55.5512 17.5906 62.5855C17.2331 69.7064 17.825 76.6247 18.2628 83.6309C18.4828 87.1597 18.661 90.6951 18.8444 94.2297C18.9349 96.0289 19.0292 97.7929 18.9259 99.6171C18.8465 101.029 18.6342 102.294 19.169 103.545C19.3397 103.95 20.2604 103.694 20.4448 103.343C20.4983 103.242 20.5517 103.141 20.6 103.042C20.8379 102.589 19.5534 102.598 19.3155 103.05C19.262 103.15 19.2086 103.251 19.1604 103.351C19.5839 103.284 20.0074 103.216 20.4362 103.148C19.7542 101.547 20.3181 99.4249 20.3295 97.6671C20.3406 96.1397 20.199 94.6134 20.1212 93.1001C19.9446 89.7199 19.773 86.3331 19.5598 82.9586C19.1234 76.1019 18.5646 69.3338 18.9132 62.3697C19.2707 55.2488 20.5575 48.3028 22.2628 41.2961C23.9498 34.3498 25.9294 27.4723 28.6296 20.8142C28.8287 20.3163 27.5303 20.367 27.3457 20.8339Z" fill="#3E1B1B"/>
<path d="M25.7799 20.3403C23.1231 27.6082 20.3825 17.9525 23.2224 17.9616C23.0986 17.8142 22.9747 17.6667 22.8509 17.5192C22.3475 18.2571 20.8666 16.7321 20.805 16.6064C19.7649 14.5455 22.7696 12.8991 24.0143 14.4164C24.2227 14.6746 25.1417 14.6552 25.1724 14.1258C25.2071 13.5793 25.0943 13.1187 25.1011 12.5826C25.1235 11.0229 25.3213 10.8954 26.7148 10.4762C28.0338 10.0809 28.4352 10.0923 29.0039 11.4554C29.4368 12.4875 29.1713 13.6313 28.9241 14.761C28.8002 15.3177 29.9067 15.1507 30.0744 14.7447C30.9844 12.4997 33.8734 12.6749 33.1074 15.5715C32.575 17.5864 31.0752 18.0625 29.6138 18.7885C28.934 19.1262 29.7076 19.4817 30.0933 19.3375C31.8267 18.6894 31.5891 21.1165 31.3306 21.9643C30.8434 23.5783 28.7084 24.679 27.7137 23.5163C27.0952 22.7951 26.6417 21.0133 26.9025 19.8703C26.6622 19.9944 26.4217 20.113 26.1814 20.2371C26.2191 20.2359 26.2568 20.2348 26.2945 20.2336C26.8504 20.2179 27.3828 19.4967 26.5818 19.5172C26.5441 19.5184 26.5064 19.5195 26.4687 19.5207C26.2897 19.5248 25.8119 19.6087 25.7476 19.8875C24.8922 23.613 28.0525 26.2025 30.9206 24.2088C32.1687 23.3402 33.1401 21.0954 32.5691 19.558C32.109 18.3178 30.7799 18.3436 29.7437 18.733C29.902 18.918 30.0648 19.0969 30.2232 19.282C31.4996 18.6485 32.7923 18.3015 33.6987 16.9088C34.4807 15.7071 34.7794 13.9788 33.9073 12.931C32.5249 11.2741 29.7432 12.7176 28.9148 14.7626C29.2966 14.7556 29.6786 14.7541 30.065 14.7463C30.4796 12.8503 30.6477 11.3961 29.4602 10.0106C28.8566 9.3087 28.0731 8.82394 27.1641 8.85795C26.3022 8.88915 25.3479 9.32412 24.7242 10.1214C23.7147 11.4122 24.0739 12.8448 23.9825 14.3292C24.3702 14.2339 24.7576 14.1331 25.1406 14.0386C24.1785 12.8646 23.3844 12.2343 21.7991 12.6928C20.6288 13.0346 19.376 13.9041 19.325 15.4579C19.273 16.9845 20.1379 17.9681 21.3124 18.2041C22.0162 18.348 23.3197 18.5068 23.8763 17.6831C24.1035 17.3485 23.7124 17.2424 23.5048 17.2406C22.6416 17.2393 21.4948 17.5771 20.9784 18.5793C20.3397 19.8268 20.7775 22.2774 21.6216 23.0954C23.3097 24.7314 26.1595 22.3971 26.9208 20.3256C27.1086 19.8341 25.9458 19.8909 25.7799 20.3403Z" fill="#3E1B1B"/>
<path d="M19.5718 43.1176C19.5935 43.1649 19.6151 43.2122 19.6368 43.2595C19.9354 43.0716 20.2341 42.8894 20.5327 42.7015C18.8307 42.3894 17.2113 37.8197 16.9264 36.1673C16.4309 33.3543 17.0917 30.7948 18.041 28.0435C17.6998 28.1537 17.3537 28.2647 17.0127 28.3805C17.6129 28.685 18.099 30.5465 18.3527 31.1946C18.9826 32.8271 19.7123 34.3628 20.0284 36.1743C20.3136 37.8324 20.3534 39.5274 20.0139 41.2484C19.8458 42.0887 19.5523 42.8827 19.8998 43.6507C20.0841 44.0499 21.3004 43.72 21.0889 43.2575C20.6545 42.3003 21.5111 39.6955 21.5035 38.5453C21.4938 36.9812 21.2485 35.4524 20.8097 34.0251C20.343 32.5176 19.6708 31.057 19.0737 29.6231C18.7724 28.8982 18.5407 28.0647 17.8751 27.7319C17.6331 27.6093 16.9747 27.695 16.8468 28.0689C15.7389 31.2902 15.0202 34.3646 15.9612 37.5655C16.5353 39.5253 17.9696 43.0719 19.945 43.4273C20.154 43.4649 21.0365 43.3063 20.8408 42.8693C20.8191 42.822 20.7974 42.7747 20.7758 42.7274C20.5812 42.3187 19.3649 42.6486 19.5718 43.1176Z" fill="#3E1B1B"/>
<path d="M20.0641 53.1018C19.722 52.9784 22.9214 48.975 23.1471 48.7693C23.8193 48.1425 24.5601 47.5897 25.2979 47.0805C25.8443 46.7011 26.7981 45.8589 27.4704 45.8123C27.3299 45.6969 27.1848 45.5824 27.0444 45.467C26.3511 47.3064 25.5662 49.312 24.5811 50.9978C23.885 52.1875 23.1593 52.8827 21.9903 53.3807C21.0193 53.796 20.5174 53.6573 19.6071 53.4926C19.1873 53.4149 18.295 54.0422 19.0356 54.1772C20.8185 54.5024 22.4903 54.3955 24.1527 53.0169C26.1458 51.3661 27.2641 47.8843 28.1817 45.4581C28.2876 45.1819 27.9051 45.103 27.7557 45.1128C25.9584 45.2414 23.8914 47.0339 22.4578 48.2815C21.2821 49.3072 18.976 51.6677 18.9701 53.4847C18.9697 53.5922 19.0806 53.6697 19.1518 53.695C19.185 53.7054 19.2184 53.7211 19.2516 53.7314C19.5933 53.8442 20.6629 53.3205 20.0641 53.1018Z" fill="#3E1B1B"/>
<path d="M46.9072 59.2725C47.1173 59.0618 47.3537 58.8689 47.5795 58.6519C48.6732 57.6184 49.4776 56.2618 50.0834 54.7103C50.7478 53.0235 50.9806 51.1685 51.3261 49.3283C51.4108 48.8791 51.6616 47.987 51.77 47.186C50.124 48.3393 48.7368 49.6881 47.8584 51.9347C47.3486 53.2524 46.4891 57.0699 46.9072 59.2725Z" fill="#CBD0E3"/>
<path d="M48.4504 67.2985C47.6526 67.0342 46.8372 66.8011 46.0298 66.678C45.759 66.6399 41.4141 66.9006 41.6029 67.3117C41.7764 67.6878 41.5741 67.7147 41.3131 67.5971C41.756 68.3241 42.0893 68.8106 42.8727 69.2866C43.9782 69.9585 44.8576 70.0679 45.9631 69.7564C47.3744 69.3589 48.783 68.6039 50.0955 67.8534C49.5456 67.5849 48.8671 67.4406 48.4504 67.2985Z" fill="#CBD0E3"/>
<path d="M15.0807 78.3432C14.4524 78.345 11.1657 78.9081 10.6622 80.0244C11.3101 80.5222 12.1286 80.9444 12.7335 81.3744C13.8386 82.1627 15.1134 82.9284 16.3473 83.2015C17.3221 83.4191 18.4616 83.3249 19.4136 83.1821C20.2715 83.0518 20.8833 82.6684 21.559 82.2438C20.0511 79.6716 17.4659 78.3367 15.0807 78.3432Z" fill="#CBD0E3"/>
<path d="M28.7518 75.2164C29.0543 74.4471 30.1875 70.0657 29.5483 68.7427C28.8467 69.2256 28.1226 69.9617 27.4888 70.4315C26.3385 71.2918 25.1237 72.3727 24.317 73.7133C23.6816 74.7726 23.2029 76.2267 22.8592 77.4848C22.5516 78.6151 22.558 79.6064 22.5673 80.699C25.3213 80.4701 27.6106 78.1403 28.7518 75.2164Z" fill="#CBD0E3"/>
<path d="M49.1236 80.5487C47.376 79.3621 44.5633 78.0169 42.7189 79.2545C42.7164 79.2589 42.7101 79.2597 42.7039 79.2605C43.2378 80.0002 43.7198 81.5654 44.0918 82.1118C44.8658 83.2533 45.9857 84.3043 47.0859 84.8189C48.2826 85.3775 49.5861 85.1357 50.7723 84.9378C51.5303 84.813 52.7881 84.7231 53.5446 84.2135C52.0594 83.0326 50.6845 81.6061 49.1236 80.5487Z" fill="#CBD0E3"/>
<path d="M22.7589 81.7094C22.6292 81.5739 22.3516 81.3856 22.1893 81.4793C22.1657 81.4905 22.1459 81.5051 22.1261 81.5198C21.9936 81.3083 21.8487 81.0985 21.7051 80.8966C21.6865 80.9191 21.6655 80.946 21.647 80.9685C21.3938 81.283 22.1636 81.8682 22.3439 81.9248C22.5639 81.9922 22.7863 82.0151 23.0122 82.0013C22.9697 81.9347 22.9173 81.8653 22.8487 81.794C22.8163 81.7701 22.7864 81.742 22.7589 81.7094Z" fill="#CBD0E3"/>
<path d="M28.0662 58.3851C27.798 58.4208 26.9082 57.6113 27.3019 57.3219C28.4627 56.4686 29.5408 55.7303 30.1981 54.1993C30.8772 53.0066 30.3741 52.0874 28.6991 51.4448C28.433 51.6757 28.1642 51.9111 27.9019 52.1457C27.6296 52.4398 27.3434 52.7899 27.1558 53.1851C27.2091 53.7605 27.1806 54.3342 27.0357 54.8527C26.8982 55.337 26.119 54.363 26.0465 54.1355C25.8732 53.5636 25.9145 53.009 26.0876 52.5034C26.0202 52.2461 25.9169 51.9686 25.7917 51.6358C25.6828 50.5311 25.21 50.1863 24.3759 50.5967C23.7817 50.2472 23.391 50.3324 23.2039 50.8524C22.5119 51.6807 22.9201 53.1658 23.5261 54.2792C23.8556 54.5849 24.146 54.9914 24.3678 55.5402C24.6606 56.2668 23.8116 55.7723 23.6281 55.5637C23.365 55.2658 23.1043 54.9219 22.8589 54.551C21.7964 54.0266 20.1736 56.0229 19.937 56.9863C19.7485 57.4773 19.7148 58.0185 19.8384 58.6053C20.5146 59.0188 21.1921 59.4405 21.8683 59.854C22.1815 59.8955 22.5298 59.7494 22.8689 59.5462C23.1965 58.6623 23.7019 57.8504 24.5149 58.2831C24.9183 58.4999 25.4477 59.6236 24.7268 59.2368C24.691 59.2166 24.6539 59.2091 24.6156 59.2141C24.7838 59.4289 24.8792 59.6575 24.7723 59.7633C24.7494 59.783 24.7303 59.8063 24.7074 59.826L24.7048 59.8305C24.4348 60.0578 24.1545 60.2614 23.8587 60.4297C23.5716 61.2209 23.3592 62.1519 23.3511 62.3652C23.2391 64.8347 25.1783 66.0871 26.1751 64.436C26.2602 64.2958 26.5224 63.6951 26.6687 63.2055C26.4054 62.8453 26.2107 62.3844 26.1166 61.8187C26.0656 61.5009 26.3249 61.4914 26.508 61.596C27.179 61.977 27.5223 62.5512 27.6346 63.1687C28.3165 63.415 29.4038 62.3884 29.5639 61.8222C29.6975 61.3343 29.1849 58.2447 28.0662 58.3851Z" fill="#FFAFC8"/>
<path d="M63.3485 69.5005C62.5614 69.3603 61.4495 69.0017 61.4055 67.8163C61.4103 67.7451 61.4382 67.6957 61.4916 67.6637C62.1593 67.2428 62.9643 67.6962 63.6266 68.5172C64.4174 68.275 65.1477 67.5346 65.405 66.8072C65.8023 65.6752 66.0428 63.8708 64.4478 63.1987C63.4875 62.7909 62.6756 63.5298 62.0675 64.2208C61.7781 64.5457 60.9145 63.7473 61.0963 63.2998C61.6016 62.0496 61.4606 59.856 59.7976 60.0563C58.5143 60.2103 58.1389 61.7421 58.6708 63.1491C58.9426 63.8684 58.1223 63.4005 57.9327 63.1725C56.4125 61.3656 54.4026 63.5588 54.3401 65.5802C54.2326 69.1642 56.7328 67.4911 57.9395 68.3186C58.0031 68.2686 58.0666 68.2186 58.1277 68.1732C58.3387 68.0289 58.683 68.3691 58.8379 68.5436C58.8661 68.5772 58.8968 68.6064 58.925 68.64C59.2771 69.029 59.1784 69.2248 58.9553 69.2337C58.228 69.7496 57.9144 70.775 57.6273 71.7222C57.3215 72.4312 57.2364 73.1979 57.3735 74.0306C58.2838 75.3831 59.2197 75.7402 60.1914 75.1046C60.6278 74.8639 60.9617 74.4916 61.1931 73.9877C61.0848 73.6783 61.0098 73.4143 60.958 73.1929C60.7699 73.0145 60.5894 72.8227 60.4407 72.6059C59.9895 71.9644 59.6748 71.0183 60.5932 71.1453C61.0155 71.2012 61.5191 71.8855 61.8749 72.5812C62.0666 72.701 62.2827 72.8508 62.5295 73.0504C63.1322 72.9744 63.5568 72.6399 63.8019 72.0386C63.9914 70.9301 63.8365 70.0873 63.3485 69.5005Z" fill="#FFAFC8"/>
<path d="M62.9399 46.8978C63.1247 46.7368 63.5146 47.1065 63.6473 47.2666C63.6753 47.3001 63.7034 47.3335 63.7315 47.367C64.0695 47.7767 63.9687 47.976 63.7452 47.9768C63.7174 48.0053 63.687 48.0383 63.663 48.0704C63.6863 48.1748 63.6689 48.268 63.5827 48.3166C63.527 48.353 63.4598 48.3785 63.4027 48.4067C62.8561 49.2398 62.5008 50.6178 62.5779 51.5415C62.7284 53.3647 64.8301 54.445 65.9837 53.618C66.5851 53.1867 67.9627 51.4951 66.3803 50.4202C66.0277 50.1819 65.6329 49.1971 66.3021 49.5503C67.7271 50.3114 69.0603 51.3079 70.4414 50.2026C72.4326 48.6195 70.4095 45.8509 68.638 46.7849C68.3187 46.9555 67.4291 46.0778 67.791 45.7486C68.5299 45.0842 69.2893 44.4253 69.484 43.2174C69.7433 41.6249 69.4587 41.2454 68.2986 40.3581C67.0748 39.4174 66.8675 39.3375 66.0798 40.5457C65.8097 40.9618 65.6642 41.4275 65.3686 41.8264C65.0844 42.2154 64.4045 41.3925 64.3801 40.999C64.2227 38.6684 61.2168 37.2248 60.9562 39.797C60.9489 39.893 61.0698 40.9473 61.3493 41.6788C61.8264 41.9253 62.2762 42.3449 62.6169 42.7708C62.7674 42.9615 63.0002 43.4017 62.669 43.4582C62.2021 43.5368 61.7231 43.1376 61.3098 42.6429C59.4878 42.6578 57.9218 49.871 62.4429 47.435C62.5882 47.2504 62.7501 47.0677 62.9399 46.8978Z" fill="#FFAFC8"/>
<path d="M62.31 48.5289C57.0926 51.4554 52.2734 55.1909 47.6275 59.2251C43.0962 63.1545 38.8877 67.3888 35.2021 72.5144C31.4731 77.7057 28.4932 83.5404 25.3648 89.3131C23.7889 92.2202 22.181 95.0973 20.5771 97.978C19.7588 99.442 18.9601 100.882 17.9969 102.202C17.2518 103.224 16.4871 104.021 16.2413 105.437C16.1601 105.892 16.9155 106.471 17.2139 106.355C17.2997 106.323 17.3855 106.29 17.4674 106.254C17.8516 106.105 16.9681 105.029 16.5839 105.178C16.4981 105.21 16.4123 105.243 16.3305 105.279C16.6534 105.584 16.9762 105.889 17.3031 106.198C17.6198 104.388 19.0441 103.226 19.912 101.88C20.6669 100.711 21.3168 99.4151 22.004 98.1823C23.537 95.4263 25.0767 92.6695 26.5818 89.8872C29.638 84.231 32.567 78.5399 36.2132 73.4622C39.9422 68.271 44.2219 63.9974 48.8178 60.0297C53.3716 56.0931 58.0921 52.4561 63.1986 49.5954C63.5786 49.379 62.6648 48.3243 62.31 48.5289Z" fill="#3E1B1B"/>
<path d="M32.1047 79.7104C36.6642 80.2114 41.0539 79.6668 45.2409 77.935C47.6087 76.9564 50.0569 76.1508 52.3349 74.9211C54.5707 73.7136 56.5605 72.0375 58.4609 70.1937C58.8114 69.8563 57.8846 68.8798 57.6042 69.1456C53.7919 72.8429 49.6491 74.7066 45.035 76.6064C40.6484 78.4183 36.2123 79.1399 31.4233 78.6145C30.9348 78.5653 31.7354 79.6707 32.1047 79.7104Z" fill="#3E1B1B"/>
<path d="M26.866 91.7407C25.0465 89.0306 23.8876 86.5419 23.1854 83.1805C22.5789 80.2881 22.3576 77.4039 22.1501 74.4846C21.9787 72.0876 21.6542 69.6898 21.8795 67.3326C22.1244 64.8153 22.2442 62.0486 23.7855 60.363C24.0428 60.0848 23.1217 59.1005 22.8125 59.4394C21.2573 61.1392 21.1848 63.6965 20.9017 66.2188C20.5663 69.2002 21.0173 72.3369 21.2255 75.3805C21.4263 78.2384 21.7763 81.1143 22.4601 83.922C23.2248 87.047 24.3883 89.2239 26.0921 91.7623C26.3826 92.1894 27.3765 92.5003 26.866 91.7407Z" fill="#3E1B1B"/>
<path d="M62.7108 47.4636C57.1856 50.745 59.9436 40.658 62.0145 43.2593C61.9968 43.0303 61.979 42.8014 61.9612 42.5724C61.2294 42.6922 60.8991 40.1417 60.916 39.9867C61.1721 37.418 64.1798 38.8695 64.3413 41.1982C64.3663 41.5914 65.0475 42.4156 65.331 42.0278C65.6258 41.6303 65.7704 41.1655 66.0398 40.7507C66.8252 39.5462 67.0325 39.6267 68.2577 40.5703C69.4165 41.4647 69.7042 41.8403 69.4478 43.4304C69.2552 44.6364 68.4972 45.2922 67.7596 45.9537C67.3946 46.2777 68.2855 47.1573 68.6083 46.9916C70.3802 46.0596 72.4052 48.8362 70.4172 50.4115C69.0346 51.5076 67.7038 50.5117 66.2778 49.7469C65.6144 49.3911 66.0046 50.377 66.3575 50.6161C67.9439 51.6904 66.5735 53.3797 65.9666 53.8094C64.8147 54.632 62.7117 53.5463 62.5581 51.7244C62.4616 50.5931 63.0088 48.7794 63.7629 48.12C63.5261 47.9979 63.2919 47.8714 63.0551 47.7493C63.0832 47.7828 63.1113 47.8163 63.1394 47.8499C63.5535 48.3454 64.2982 48.2652 63.7026 47.5496C63.6745 47.5161 63.6464 47.4826 63.6183 47.4491C63.4854 47.2888 63.0949 46.9182 62.9104 47.0784C60.4483 49.2231 61.4811 54.1437 64.5602 55.1977C65.9007 55.6556 67.7174 54.7798 68.0581 53.0507C68.3334 51.6564 67.3493 50.4627 66.4001 49.8219C66.4245 50.1119 66.4553 50.4011 66.4798 50.6911C67.725 51.3596 68.8408 52.2678 70.1899 52.0019C71.354 51.7724 72.4244 50.6879 72.3036 49.0683C72.1104 46.5041 69.3657 45.097 67.7519 45.9464C68.0344 46.2897 68.3143 46.6374 68.6006 46.9843C69.8384 45.8739 70.6783 44.8853 70.4936 42.7124C70.3986 41.6098 70.065 40.5133 69.3839 39.7097C68.7386 38.9469 67.8268 38.4169 66.9779 38.4734C65.6036 38.565 65.1598 40.0183 64.361 41.1006C64.6914 41.3799 65.0242 41.6547 65.3507 41.9303C65.2264 40.1294 64.9569 38.909 63.5722 37.8209C62.5485 37.0205 61.2041 36.559 60.4008 37.7328C59.61 38.8843 59.7571 40.4468 60.4991 41.705C60.9425 42.461 61.8169 43.7763 62.6298 43.6378C62.9608 43.5825 62.7273 43.142 62.5764 42.951C61.9462 42.1614 60.9416 41.3792 60.07 41.6946C58.9881 42.091 58.0998 44.4156 58.3133 45.829C58.7404 48.656 61.974 49.4257 63.5518 48.4942C63.9314 48.2798 63.0536 47.2622 62.7108 47.4636Z" fill="#3E1B1B"/>
<path d="M57.9925 68.5799C56.8185 67.6097 54.2089 69.4353 54.3133 65.7809C54.3721 63.7644 56.3751 61.5827 57.8962 63.39C58.0858 63.6181 58.9095 64.0911 58.6331 63.369C58.0995 61.9637 58.4716 60.4367 59.7527 60.287C61.409 60.0887 61.5574 62.2813 61.0552 63.5269C60.8744 63.9729 61.7381 64.772 62.0265 64.4488C62.6325 63.7613 63.4418 63.0267 64.4014 63.4366C65.9951 64.112 65.7607 65.9069 65.3634 67.0395C64.9399 68.2501 63.1851 69.5009 62.0511 68.3971C62.1681 68.618 62.2839 68.8308 62.401 69.0517C63.594 69.5596 64.0532 70.6267 63.7681 72.2501C63.5245 72.8491 63.0987 73.186 62.4995 73.2555C60.951 72.0191 60.5047 72.3297 61.1629 74.1828C60.9328 74.6848 60.6 75.0552 60.1647 75.2939C59.1995 75.9286 58.2606 75.5658 57.3492 74.2137C57.2109 73.3825 57.2945 72.6178 57.5987 71.9115C57.8887 70.9585 58.2012 69.9238 58.9468 69.417C58.7094 69.2946 58.4745 69.1677 58.237 69.0452C58.2652 69.0788 58.2959 69.108 58.3241 69.1416C58.7481 69.6126 59.5076 69.5307 58.8889 68.8405C58.8607 68.8069 58.83 68.7778 58.8018 68.7441C58.6468 68.5696 58.3025 68.229 58.092 68.3723C55.5163 70.1272 55.6681 76.3578 59.3603 76.6782C60.5689 76.7823 62.4787 75.9256 62.29 74.0448C62.212 73.2845 61.266 71.4398 60.5552 71.3415C59.6379 71.212 59.9499 72.1532 60.4054 72.7982C61.2921 74.0583 62.9946 74.8439 64.0987 74.0048C66.293 72.3408 63.3108 66.697 61.4485 67.8664C61.3978 67.8937 61.37 67.9429 61.3628 68.0184C61.4104 69.2507 62.6089 69.5922 63.3963 69.722C65.0782 70.0008 66.2035 69.072 66.5638 67.0329C66.8514 65.4051 66.3639 63.8239 65.1024 62.9148C63.5508 61.799 62.1746 62.2426 61.0437 63.516C61.3662 63.8221 61.6887 64.1282 62.015 64.4379C62.7898 62.5314 62.4524 60.235 60.6119 59.3596C58.4306 58.3254 56.7087 60.4583 57.7138 63.1072C57.9595 63.1002 58.2051 63.0932 58.4508 63.0861C56.4991 60.7672 54.0797 61.3255 53.3781 64.4816C53.0925 65.7819 53.4227 67.0148 54.281 67.9804C54.7512 68.5158 55.2712 68.8584 55.8517 69.0938C56.3378 69.2875 56.8743 69.3919 57.3711 69.4517C57.5226 69.4651 57.8335 69.2798 57.9384 69.3656C58.6251 69.9351 58.4619 68.9705 57.9925 68.5799Z" fill="#3E1B1B"/>
<path d="M24.6773 60.0072C24.7002 59.9876 24.7192 59.9644 24.742 59.9448C24.9971 59.6916 24.105 58.7279 23.8307 58.9628C23.3304 59.3889 22.5038 60.1107 21.8488 60.0254C21.1729 59.6107 20.4956 59.1879 19.8196 58.7733C19.6952 58.1874 19.7254 57.652 19.9153 57.1582C20.201 55.9918 22.545 53.292 23.4234 55.474C23.6696 55.467 23.9158 55.4599 24.162 55.4529C23.3069 54.476 22.2338 52.1573 23.1666 51.0481C23.3526 50.5299 23.7425 50.4461 24.3365 50.7967C25.1686 50.3898 25.6388 50.7398 25.7521 51.8378C26.0902 52.7572 26.279 53.2185 26.02 54.1282C26.3517 54.3674 26.6772 54.6075 27.0089 54.8468C26.6724 53.757 27.3033 52.9527 27.8537 52.354C28.1191 52.1244 28.387 51.8904 28.6485 51.6571C30.3286 52.3027 30.8262 53.2222 30.1502 54.4102C29.4965 55.9357 28.4212 56.669 27.2636 57.5167C26.871 57.8043 27.7609 58.6147 28.0287 58.58C29.1417 58.4397 29.6628 61.5276 29.5265 62.0103C29.3125 62.7771 27.3886 64.3969 27.0847 62.5056C26.9537 62.5808 26.8227 62.6559 26.6942 62.7265C26.9169 62.8554 26.2849 64.374 26.1471 64.6078C25.1522 66.2565 23.2161 64.9964 23.3236 62.5328C23.3418 62.1236 24.1007 59.1021 24.6982 59.4149C25.4174 59.7949 24.8868 58.6721 24.485 58.4627C23.3448 57.855 22.8141 59.6967 22.5252 60.7431C21.935 62.8998 22.5845 64.9746 24.2908 66.223C26.6684 67.9572 29.1804 63.3257 26.4848 61.778C26.3018 61.673 26.039 61.6781 26.0944 61.9989C26.5609 64.9112 29.8423 65.1165 30.5752 62.6963C31.1302 60.8638 29.0078 57.2945 27.3618 57.4998C27.6176 57.8527 27.871 58.2102 28.1268 58.5631C29.7723 57.3531 33.1802 54.3907 30.535 51.5701C29.6494 50.6263 28.5344 50.1731 27.5809 50.795C26.6326 51.408 25.5393 52.8121 26.0122 54.3409C26.0811 54.5645 26.8648 55.5423 27.0012 55.0596C27.6655 52.6981 26.0415 49.2717 23.8359 49.1178C22.6311 49.0333 21.8673 50.2618 21.8165 51.6925C21.7625 53.2233 22.7022 54.7206 23.6049 55.7494C23.7885 55.9581 24.6371 56.4541 24.3435 55.7283C22.9787 52.3555 19.0864 53.7989 18.7619 56.93C18.6167 58.3398 19.1647 59.6097 20.1592 60.4024C21.706 61.6507 23.3821 61.1094 24.6773 60.0072C24.3795 59.6763 24.0727 59.3507 23.7685 59.0207C23.7457 59.0402 23.7266 59.0635 23.7038 59.083C23.4462 59.3407 24.3525 60.3316 24.6773 60.0072Z" fill="#3E1B1B"/>
<path d="M22.8285 79.743C23.1542 73.8544 27.9557 71.7854 30.6079 68.024C30.2683 67.7374 29.9301 67.4591 29.5906 67.1725C29.64 70.6552 28.9699 73.5614 27.3101 76.1341C26.2988 77.6984 23.9408 81.3029 22.0112 80.697C22.2558 81.0341 22.5003 81.3712 22.7448 81.7083C22.8032 81.6371 22.8615 81.566 22.9199 81.4948C23.178 81.1772 22.2213 80.1864 21.9243 80.5514C21.866 80.6226 21.8076 80.6938 21.7492 80.765C21.4834 81.0962 22.2932 81.716 22.4828 81.7762C24.5248 82.4183 26.6607 79.5168 27.7919 77.9327C29.8069 75.1274 30.6958 71.8874 30.6387 67.9267C30.6327 67.5205 29.8974 66.6833 29.6214 67.0752C26.924 70.9061 22.1187 72.9926 21.7896 78.9834C21.7569 79.4794 22.7987 80.2768 22.8285 79.743Z" fill="#3E1B1B"/>
<path d="M46.3795 59.684C46.372 59.74 46.3645 59.7959 46.357 59.8519C46.6622 59.973 46.9647 60.0987 47.2699 60.2198C46.2039 58.4591 47.2708 53.4779 47.8718 51.9449C48.8873 49.3262 50.607 47.9356 52.6265 46.6542C52.3286 46.4348 52.0268 46.2118 51.7263 45.997C52.0076 46.7683 51.4488 48.6426 51.3147 49.3706C50.9703 51.1959 50.7445 53.0354 50.0883 54.7193C49.4848 56.2568 48.6876 57.6038 47.6064 58.6323C47.0768 59.1325 46.48 59.4849 46.3546 60.3893C46.292 60.8627 47.3232 61.6931 47.3971 61.1464C47.5525 60.0181 49.4343 58.7672 49.9891 57.8705C50.744 56.6517 51.3131 55.2497 51.6944 53.7538C52.0947 52.1707 52.325 50.4406 52.5961 48.7982C52.7336 47.9683 52.9738 47.1166 52.6595 46.265C52.546 45.9541 52.0331 45.4328 51.7594 45.6079C49.3975 47.1114 47.3856 48.8486 46.5 52.1653C45.9563 54.1941 45.2552 58.2185 46.4958 60.2568C46.627 60.4724 47.3359 61.1374 47.4087 60.6247C47.4162 60.5687 47.4237 60.5128 47.4312 60.4568C47.4911 59.9669 46.4599 59.1364 46.3795 59.684Z" fill="#3E1B1B"/>
<path d="M41.6099 67.3017C41.4209 66.8917 45.7559 66.6405 46.0236 66.6836C46.8277 66.8006 47.6451 67.0389 48.4387 67.3089C49.0275 67.5071 50.1449 67.7105 50.6602 68.2872C50.6148 68.0676 50.5657 67.8445 50.5203 67.6249C49.0971 68.4492 47.524 69.3216 45.9636 69.7578C44.8617 70.0649 43.9845 69.9533 42.8809 69.2807C41.9633 68.7234 41.665 68.1554 41.0808 67.1941C40.8122 66.7493 39.8468 66.4319 40.3216 67.2148C41.4647 69.0997 42.7415 70.541 44.6447 70.9662C46.9255 71.4777 49.4776 69.7403 51.3572 68.6559C51.5722 68.5337 51.3316 68.1222 51.2173 67.9935C49.8378 66.4549 47.4324 65.9883 45.7619 65.6681C44.3907 65.4075 41.5274 65.1725 40.6184 66.6064C40.5646 66.6913 40.6071 66.8538 40.6467 66.9389C40.6659 66.9774 40.6825 67.0203 40.7016 67.0589C40.8956 67.46 41.9393 68.0214 41.6099 67.3017Z" fill="#3E1B1B"/>
<path d="M42.7229 79.247C44.5642 78.0163 47.3708 79.3678 49.1252 80.5564C50.9486 81.7968 52.52 83.5435 54.3147 84.8038C54.1647 84.5278 54.0133 84.244 53.8632 83.968C53.198 84.7141 51.6577 84.8009 50.7833 84.9468C49.5981 85.1412 48.2959 85.3792 47.0992 84.8183C45.9989 84.3015 44.8783 83.249 44.103 82.1072C43.6298 81.4119 42.9868 79.1075 42.2826 78.8711C42.9018 79.074 42.1853 77.961 41.8313 77.8411C41.7813 77.8273 41.7338 77.8092 41.68 77.7919C41.4373 77.7101 41.3611 77.9264 41.4598 78.1807C42.6203 81.2961 44.2834 84.0751 46.8544 85.4855C48.2707 86.2607 49.2959 86.2773 50.7657 86.0904C52.0109 85.9327 53.8812 85.9164 54.8158 84.8682C55.0181 84.6436 54.4721 84.1075 54.3643 84.0324C51.8789 82.2871 49.807 79.8729 47.1363 78.4957C45.6727 77.7428 43.227 77.336 41.8884 78.2303C41.5263 78.4716 42.4044 79.4624 42.7229 79.247Z" fill="#3E1B1B"/>
<path d="M22.4224 82.442C20.8872 79.6386 18.3132 77.7891 15.693 77.3674C14.2598 77.1379 13.0737 77.3245 11.7816 77.8834C11.2758 78.0998 9.53558 78.6395 9.58709 79.5658C9.61909 80.1361 10.1916 80.408 10.523 80.6543C12.0238 81.7713 13.6364 82.9064 15.2632 83.6567C16.5641 84.2537 17.6867 84.385 19.0054 84.3238C20.6841 84.2525 21.5761 83.7333 23.0109 82.8911C22.8184 82.8102 22.6273 82.7372 22.4348 82.6563C22.4651 82.6849 22.4891 82.7144 22.5194 82.7431C23.0748 83.3228 23.3842 82.7652 22.8326 82.1891C22.8023 82.1604 22.7783 82.1309 22.7481 82.1023C22.6168 81.9645 22.3359 81.7728 22.172 81.8674C21.2187 82.423 20.5193 83.0231 19.4057 83.184C18.4552 83.3237 17.3137 83.4108 16.3437 83.1945C15.111 82.9186 13.8368 82.1511 12.7319 81.3616C11.986 80.831 10.9152 80.31 10.2452 79.6555C10.3606 79.8728 10.4747 80.082 10.5901 80.2993C10.5942 78.9869 14.3957 78.3466 15.0709 78.3445C17.5143 78.3491 20.1826 79.7546 21.6645 82.467C21.918 82.923 22.8635 83.2443 22.4224 82.442Z" fill="#3E1B1B"/>
<path d="M34.2721 49.0684C34.405 48.7802 34.5688 48.4983 34.7147 48.1977C35.4271 46.7581 35.7571 45.1279 35.8335 43.3927C35.922 41.5039 35.5421 39.6313 35.2751 37.7266C35.2103 37.2614 35.1607 36.3038 35.0042 35.492C33.8014 37.2734 32.9101 39.1356 32.7985 41.6487C32.7382 43.1204 33.1553 47.1304 34.2721 49.0684Z" fill="#CBD0E3"/>
<path d="M37.716 55.955C36.9052 56.0294 36.088 56.14 35.3121 56.3504C35.0529 56.4239 31.1636 58.4192 31.4633 58.7276C31.7382 59.0095 31.5617 59.1162 31.2868 59.1114C31.9165 59.6129 32.3716 59.9336 33.2348 60.0631C34.4529 60.2459 35.2903 59.9937 36.2041 59.2567C37.3706 58.316 38.424 57.0419 39.391 55.8108C38.8054 55.7815 38.1407 55.9199 37.716 55.955Z" fill="#CBD0E3"/>
<path d="M9.75361 81.4188C9.18203 81.6709 6.36334 83.5027 6.24973 84.7371C6.99341 84.9398 7.86905 85.0044 8.55264 85.1615C9.80241 85.4508 11.1996 85.6517 12.4074 85.4125C13.3622 85.2254 14.3707 84.6839 15.1935 84.1721C15.9343 83.7095 16.373 83.1105 16.8571 82.4479C14.6896 80.6672 11.9234 80.4618 9.75361 81.4188Z" fill="#CBD0E3"/>
<path d="M21.7112 72.3823C21.7508 71.522 21.4165 66.8644 20.383 65.8614C19.8718 66.6118 19.4207 67.6136 18.9698 68.3235C18.1537 69.6195 17.3474 71.1529 17.0126 72.7671C16.7499 74.0417 16.7633 75.6296 16.8419 76.9745C16.9137 78.1824 17.239 79.1282 17.5998 80.1697C20.1432 78.8188 21.5684 75.6489 21.7112 72.3823Z" fill="#CBD0E3"/>
<path d="M42.0865 67.9601C40.1328 67.5621 37.1627 67.4382 35.8692 69.2959C35.8683 69.3009 35.8629 69.3041 35.8575 69.3073C36.5708 69.7739 37.4918 71.0161 37.9983 71.3696C39.0538 72.1093 40.3954 72.6302 41.5537 72.6681C42.8131 72.7083 43.9225 71.9742 44.9389 71.3265C45.5889 70.9141 46.7037 70.3371 47.2335 69.5732C45.52 69.0773 43.8308 68.3133 42.0865 67.9601Z" fill="#CBD0E3"/>
<path d="M17.899 81.1043C17.7397 81.0325 17.4299 80.9706 17.3116 81.1181C17.2937 81.1373 17.2803 81.1582 17.2668 81.1791C17.0815 81.04 16.8855 80.9072 16.693 80.7809C16.6831 80.8084 16.6724 80.8408 16.6625 80.8683C16.5298 81.2501 17.4082 81.4786 17.5891 81.4596C17.8093 81.4348 18.018 81.3691 18.2186 81.269C18.1595 81.2254 18.0906 81.1832 18.0065 81.1456C17.9697 81.1367 17.9339 81.1229 17.899 81.1043Z" fill="#CBD0E3"/>
<path d="M16.2562 57.0103C16.0203 57.1533 14.948 56.7506 15.2205 56.3164C16.024 55.0364 16.7871 53.8989 16.9154 52.1833C17.1691 50.7787 16.419 50.1146 14.6754 50.1896C14.5022 50.5164 14.328 50.8485 14.1594 51.1773C14.0002 51.5664 13.8457 52.014 13.7961 52.4642C14.0246 52.9865 14.1773 53.5407 14.2054 54.0901C14.2297 54.604 13.2081 54.0006 13.0704 53.815C12.7323 53.3449 12.5975 52.8036 12.5993 52.2549C12.457 52.0391 12.2753 51.8188 12.0562 51.5551C11.6114 50.555 11.0682 50.4216 10.4277 51.1497C9.77127 51.0613 9.4379 51.3011 9.42761 51.8691C9.04838 52.9344 9.88745 54.1723 10.793 54.9782C11.1919 55.1329 11.5862 55.399 11.9617 55.8275C12.458 56.3952 11.5216 56.2736 11.2875 56.1512C10.9522 55.9767 10.6048 55.7578 10.263 55.5071C9.12053 55.4442 8.24782 57.9934 8.33025 59.0008C8.30966 59.5419 8.44733 60.0673 8.74419 60.5719C9.49616 60.6873 10.2519 60.8098 11.0038 60.9252C11.3054 60.8369 11.5807 60.5567 11.8298 60.2264C11.856 59.2571 12.0685 58.2833 12.9525 58.3612C13.3917 58.4018 14.2298 59.2485 13.4451 59.1766C13.4058 59.1721 13.3692 59.1801 13.3355 59.2005C13.5575 59.3351 13.7167 59.5124 13.6511 59.6559C13.6361 59.6839 13.6258 59.7137 13.6109 59.7417L13.6099 59.747C13.432 60.0719 13.2372 60.3788 13.0172 60.6585C12.9994 61.5236 13.094 62.4905 13.153 62.6955C13.8198 65.0763 15.997 65.4701 16.4006 63.5027C16.4352 63.3354 16.4895 62.6605 16.4717 62.1379C16.1168 61.9046 15.7937 61.5482 15.5306 61.0516C15.3845 60.7719 15.6205 60.6572 15.8218 60.6815C16.5588 60.7683 17.0542 61.1713 17.3501 61.7094C18.0552 61.6644 18.7369 60.2506 18.7079 59.6498C18.6789 59.1341 17.2432 56.4215 16.2562 57.0103Z" fill="#FFAFC8"/>
<path d="M52.3088 51.2059C51.5414 51.3938 50.4075 51.5077 49.9981 50.4067C49.9804 50.3376 49.9907 50.2796 50.0298 50.2277C50.5128 49.5588 51.394 49.6592 52.2584 50.1647C52.9102 49.6144 53.3512 48.6185 53.3614 47.8272C53.3744 46.5971 53.034 44.7962 51.3584 44.8108C50.3485 44.8166 49.832 45.8442 49.4879 46.7438C49.3229 47.1682 48.2804 46.7661 48.3083 46.2696C48.3838 44.8841 47.5715 42.871 46.1048 43.7367C44.9728 44.4041 45.1043 46.0026 46.0313 47.1141C46.505 47.6825 45.6051 47.5746 45.3599 47.4365C43.3998 46.3496 42.2343 49.2373 42.806 51.1706C43.8225 54.5971 45.6007 52.0008 46.9677 52.2909C47.0106 52.2179 47.0535 52.1448 47.0954 52.0771C47.2446 51.855 47.667 52.0361 47.8638 52.1378C47.9001 52.1581 47.9374 52.173 47.9738 52.1933C48.4186 52.4173 48.3888 52.6422 48.1864 52.7413C47.6783 53.5242 47.7091 54.6196 47.7399 55.6304C47.6793 56.4239 47.8397 57.1822 48.2249 57.9124C49.4828 58.8186 50.4544 58.7749 51.15 57.7797C51.4764 57.3751 51.6675 56.8878 51.7234 56.318C51.5276 56.0701 51.3765 55.8514 51.26 55.6635C51.0315 55.5717 50.8058 55.464 50.6016 55.3199C49.9871 54.898 49.4034 54.1331 50.2873 53.8792C50.693 53.7603 51.369 54.2013 51.9127 54.7131C52.1262 54.7482 52.3714 54.8017 52.6605 54.8897C53.1911 54.5728 53.4773 54.0843 53.5155 53.4171C53.3448 52.2937 52.9401 51.5612 52.3088 51.2059Z" fill="#FFAFC8"/>
<path d="M45.5723 29.98C45.6917 29.7539 46.1637 29.9434 46.3349 30.0401C46.371 30.0602 46.4071 30.0802 46.4432 30.1003C46.88 30.3484 46.8495 30.5766 46.645 30.6679C46.6283 30.7059 46.6108 30.7492 46.5987 30.7891C46.6524 30.8778 46.6654 30.9725 46.6015 31.0531C46.5617 31.1098 46.5081 31.161 46.4646 31.2106C46.2222 32.2151 46.3241 33.6541 46.6814 34.491C47.3848 36.1436 49.6458 36.3075 50.4462 35.0629C50.8636 34.414 51.601 32.2661 49.8176 31.8968C49.4206 31.8157 48.7532 31.0501 49.476 31.111C51.0179 31.249 52.5486 31.6454 53.4712 30.0472C54.8047 27.7527 52.092 25.9702 50.7585 27.5656C50.5188 27.8553 49.4314 27.3907 49.6609 26.9348C50.1319 26.0109 50.6232 25.0841 50.4269 23.87C50.1705 22.2682 49.7919 22.0268 48.4537 21.6629C47.0405 21.2745 46.8258 21.2834 46.4788 22.738C46.3604 23.2385 46.3715 23.7351 46.2244 24.2297C46.0847 24.7105 45.2064 24.2125 45.062 23.8525C44.1947 21.7259 40.9925 21.5868 41.5517 24.1099C41.5748 24.2031 42.0126 25.145 42.4958 25.7193C43.0094 25.7577 43.5518 25.9698 43.996 26.2321C44.1931 26.3504 44.543 26.6698 44.257 26.857C43.8535 27.12 43.2908 26.9389 42.7587 26.6413C41.0938 27.3935 41.8967 34.8072 45.2836 30.6862C45.3595 30.4538 45.4511 30.2165 45.5723 29.98Z" fill="#FFAFC8"/>
<path d="M44.9855 32.6751C40.7443 37.4802 37.202 42.9232 33.9445 48.5917C30.7655 54.1153 28.0256 59.8144 26.1413 66.1847C24.2368 72.6351 23.328 79.4306 22.2456 86.2214C21.7 89.6415 21.111 93.0443 20.5274 96.4492C20.2275 98.1807 19.9389 99.8815 19.4394 101.527C19.0532 102.801 18.5656 103.864 18.8301 105.333C18.9134 105.808 19.8918 106.087 20.153 105.862C20.2285 105.798 20.3039 105.735 20.3739 105.668C20.7106 105.38 19.4212 104.665 19.0845 104.953C19.0091 105.017 18.9337 105.081 18.8637 105.147C19.3028 105.323 19.742 105.498 20.1866 105.676C19.8507 103.796 20.8766 102.131 21.2697 100.496C21.6125 99.0753 21.802 97.57 22.0525 96.1126C22.6095 92.8557 23.1728 89.5956 23.6918 86.3235C24.7431 79.6731 25.6524 73.0364 27.514 66.7276C29.4185 60.2772 32.2166 54.5132 35.4474 48.928C38.6467 43.389 42.1244 38.0789 46.2769 33.3794C46.5845 33.0263 45.272 32.3429 44.9855 32.6751Z" fill="#3E1B1B"/>
<path d="M26.3692 73.5601C30.7849 72.4348 34.6882 70.3804 38.0006 67.2745C39.874 65.5188 41.8809 63.8985 43.5856 61.9369C45.2585 60.011 46.5435 57.7284 47.6886 55.3185C47.9007 54.8766 46.7068 54.2782 46.5357 54.6278C44.2383 59.4609 41.0118 62.6759 37.3586 66.0905C33.8876 69.342 30.0011 71.5801 25.3634 72.7627C24.8918 72.8875 26.0119 73.6521 26.3692 73.5601Z" fill="#3E1B1B"/>
<path d="M25.406 88.8418C22.815 86.9342 20.9083 85.0043 19.1301 82.0975C17.5979 79.5969 16.4241 76.97 15.2513 74.3055C14.2873 72.118 13.1817 69.983 12.5975 67.6949C11.9775 65.2497 11.1582 62.6143 12.0148 60.498C12.1589 60.1476 10.9776 59.5453 10.8059 59.9706C9.94118 62.1052 10.7338 64.5278 11.3202 66.9909C12.0126 69.9026 13.4833 72.6862 14.6986 75.4671C15.8446 78.0764 17.1345 80.6507 18.7096 83.0449C20.4661 85.7085 22.2722 87.3444 24.6986 89.1313C25.1105 89.4306 26.1327 89.3763 25.406 88.8418Z" fill="#3E1B1B"/>
<path d="M45.5739 30.437C41.6022 35.3936 40.7646 25.0714 43.5321 26.7723C43.4393 26.5658 43.3466 26.3592 43.2539 26.1527C42.6228 26.5167 41.4685 24.2618 41.4323 24.112C40.8097 21.6375 44.0524 21.9468 44.9779 24.0541C45.1321 24.4106 46.0319 24.9409 46.1624 24.4828C46.3001 24.0117 46.2776 23.53 46.3862 23.0516C46.7044 21.6615 46.9214 21.6646 48.3599 22.1179C49.7212 22.5484 50.1105 22.7979 50.4061 24.3634C50.632 25.5502 50.1558 26.4212 49.7001 27.2904C49.4735 27.7175 50.5842 28.2268 50.8249 27.9613C52.1388 26.4836 54.9226 28.3631 53.6253 30.5131C52.7233 32.0088 51.1704 31.5434 49.6073 31.3257C48.8802 31.2243 49.5671 32.0053 49.9706 32.1055C51.7841 32.5554 51.0911 34.5979 50.678 35.2067C49.8962 36.3686 47.6051 36.0867 46.8561 34.4475C46.3901 33.4299 46.2865 31.5563 46.758 30.6832C46.5001 30.6516 46.243 30.615 45.9851 30.5834C46.022 30.6049 46.059 30.6263 46.096 30.6477C46.6411 30.9649 47.2973 30.6333 46.5123 30.1743C46.4753 30.1529 46.4383 30.1315 46.4014 30.11C46.226 30.007 45.7442 29.7977 45.6285 30.0103C44.0865 32.8529 46.6761 37.0666 49.8517 36.9821C51.2338 36.9443 52.6075 35.5032 52.3429 33.7795C52.1299 32.3893 50.829 31.6204 49.7445 31.3531C49.8638 31.614 49.9885 31.872 50.1078 32.1329C51.4729 32.3237 52.7993 32.7819 53.9478 32.0689C54.9387 31.4536 55.5583 30.0764 54.907 28.6137C53.8738 26.2988 50.8871 25.9398 49.6907 27.2863C50.0643 27.5076 50.4371 27.7339 50.8154 27.9572C51.5799 26.4982 52.0202 25.2898 51.1255 23.3353C50.6703 22.3439 49.9983 21.4407 49.1055 20.9295C48.2591 20.4439 47.246 20.2666 46.4863 20.6123C45.2566 21.1721 45.3347 22.6754 44.9634 23.9566C45.3596 24.1019 45.7566 24.2421 46.148 24.3854C45.4329 22.7555 44.7783 21.7151 43.1453 21.1827C41.9392 20.7929 40.5523 20.8286 40.2074 22.1964C39.8666 23.5391 40.523 24.9397 41.6235 25.8521C42.2825 26.4011 43.5234 27.3208 44.2226 26.9114C44.5077 26.7456 44.1466 26.4171 43.9445 26.2918C43.1029 25.7761 41.9205 25.3966 41.2265 25.9906C40.3666 26.7326 40.3279 29.1986 40.9956 30.4378C42.3308 32.9162 45.5532 32.5141 46.6892 31.1038C46.9658 30.7735 45.8212 30.1315 45.5739 30.437Z" fill="#3E1B1B"/>
<path d="M47.1078 52.4145C45.7015 51.9154 43.9103 54.5265 42.7814 51.0759C42.1596 49.1714 43.2727 46.438 45.2793 47.5989C45.5304 47.7462 46.4475 47.9023 45.9509 47.3235C44.9885 46.1956 44.8193 44.6398 45.9488 44.0555C47.4076 43.2955 48.2792 45.2926 48.2343 46.6307C48.2173 47.1101 49.2805 47.5571 49.4378 47.155C49.7653 46.3025 50.2644 45.3353 51.2854 45.3853C52.9794 45.4634 53.3653 47.2218 53.3791 48.4178C53.3949 49.6958 52.1982 51.4733 50.7839 50.8355C50.9658 51.0013 51.1437 51.16 51.3256 51.3257C52.5945 51.3864 53.375 52.224 53.6567 53.8397C53.6332 54.4839 53.3539 54.9465 52.8254 55.2193C50.985 54.6014 50.6781 55.0464 51.9055 56.5494C51.8618 57.0983 51.6796 57.5598 51.3587 57.9339C50.6827 58.8618 49.6964 58.8486 48.4039 57.9015C47.9979 57.1729 47.8185 56.4294 47.8618 55.6639C47.8095 54.6729 47.7504 53.5978 48.2672 52.8655C48.0075 52.8335 47.7486 52.7964 47.4889 52.7644C47.5261 52.7861 47.5642 52.8026 47.6014 52.8243C48.1497 53.1173 48.8217 52.7771 48.0206 52.347C47.9833 52.3254 47.9453 52.3088 47.9081 52.2871C47.7068 52.1778 47.2756 51.9791 47.1297 52.1861C45.3461 54.7194 47.5745 60.4881 51.082 59.5064C52.2299 59.1843 53.7014 57.7213 52.8971 56.0294C52.5704 55.3461 51.0809 53.9508 50.3934 54.1056C49.5053 54.3028 50.1081 55.0739 50.7438 55.5186C51.9827 56.3883 53.8139 56.5316 54.5493 55.3645C56.0122 53.0484 51.374 48.81 50.0512 50.5487C50.0136 50.5919 50.0045 50.6474 50.0232 50.7205C50.4801 51.8553 51.6982 51.7586 52.4669 51.6066C54.1092 51.2836 54.834 50.0253 54.4823 47.9951C54.2014 46.3744 53.2225 45.0663 51.7561 44.6546C49.9532 44.1504 48.8346 45.0423 48.22 46.6245C48.6196 46.7986 49.0192 46.9727 49.4235 47.1488C49.498 45.0988 48.4175 43.0702 46.4291 42.8909C44.0738 42.6815 43.203 45.2717 45.0166 47.3979C45.2404 47.3061 45.4643 47.2143 45.6882 47.1225C43.1136 45.633 41.0728 46.9941 41.4846 50.1864C41.6575 51.5004 42.3749 52.5378 43.4889 53.1421C44.1014 53.4793 44.6951 53.6189 45.3086 53.6374C45.8211 53.6498 46.3502 53.5611 46.8277 53.4446C46.9718 53.4046 47.1959 53.1236 47.3213 53.1674C48.1446 53.4612 47.6709 52.6166 47.1078 52.4145Z" fill="#3E1B1B"/>
<path d="M13.6963 59.8347C13.7108 59.8084 13.7206 59.78 13.7351 59.7537C13.8857 59.4273 12.7371 58.8336 12.5626 59.1495C12.2436 59.7236 11.7224 60.6887 11.0884 60.8368C10.3242 60.6831 9.55609 60.5222 8.79189 60.3685C8.47979 59.862 8.32761 59.3492 8.33701 58.8196C8.20869 57.6256 9.46685 54.2759 11.0127 56.0176C11.2378 55.9253 11.463 55.8329 11.6882 55.7406C10.5693 55.1217 8.79755 53.3196 9.28657 51.9539C9.28411 51.4029 9.61629 51.1885 10.2831 51.3106C10.9153 50.639 11.4676 50.8037 11.9416 51.7946C12.5634 52.5396 12.893 52.9067 12.9596 53.8505C13.3467 53.9595 13.7282 54.0715 14.1154 54.1805C13.4378 53.275 13.7503 52.3006 14.0576 51.5471C14.2256 51.2393 14.3945 50.9264 14.5577 50.6164C16.3275 50.6372 17.0967 51.3267 16.8716 52.6768C16.7806 54.336 16.0335 55.3985 15.2488 56.5971C14.9827 57.0037 16.0778 57.4543 16.3135 57.3284C17.295 56.8092 18.8153 59.5253 18.8516 60.0257C18.9119 60.8198 17.6787 63.0097 16.7616 61.3409C16.6658 61.457 16.57 61.5731 16.4751 61.6841C16.7242 61.7275 16.6509 63.3726 16.6023 63.6399C16.2374 65.5335 14.0242 65.0253 13.2948 62.6761C13.1739 62.2858 12.859 59.1863 13.5164 59.2716C14.3089 59.3778 13.4408 58.509 12.9991 58.4524C11.7409 58.2792 11.87 60.1922 11.9549 61.2748C12.1349 63.5041 13.4331 65.2248 15.43 65.802C18.2107 66.6014 18.9742 61.3806 15.9625 60.867C15.758 60.8322 15.5168 60.9285 15.6759 61.2102C17.0867 63.7805 20.1884 62.8305 20.0516 60.3042C19.9482 58.3915 16.786 55.7813 15.3339 56.5471C15.689 56.7892 16.0434 57.0363 16.3986 57.2784C17.5123 55.57 19.6653 51.6034 16.2719 49.8778C15.136 49.3006 13.953 49.2636 13.2811 50.1792C12.6108 51.0847 12.0727 52.7829 13.024 54.0528C13.1629 54.2387 14.2161 54.8833 14.1798 54.3828C13.9994 51.9356 11.3459 49.2859 9.25581 49.9095C8.11387 50.2499 7.82122 51.6686 8.25558 53.0287C8.72059 54.484 10.0927 55.5618 11.273 56.2128C11.5129 56.3447 12.464 56.5147 11.9485 55.9358C9.55264 53.2462 6.44101 55.956 7.19434 59.0072C7.5343 60.3806 8.46796 61.3815 9.65368 61.779C11.5032 62.4117 12.87 61.3201 13.6963 59.8347C13.3098 59.628 12.9168 59.4293 12.5246 59.2255C12.5101 59.2518 12.5003 59.2802 12.4858 59.3066C12.3344 59.638 13.5053 60.2523 13.6963 59.8347Z" fill="#3E1B1B"/>
<path d="M17.6249 79.0319C15.8716 73.2216 19.8135 69.4783 21.0704 64.8795C20.6395 64.7257 20.2128 64.5795 19.7818 64.4257C21.0542 67.7743 21.4242 70.8268 20.7144 73.9163C20.2809 75.7955 19.2549 80.1358 17.1655 80.2508C17.5218 80.4879 17.878 80.7249 18.2343 80.962C18.2661 80.872 18.2978 80.782 18.3295 80.692C18.4689 80.2914 17.1903 79.681 17.0298 80.1416C16.9981 80.2316 16.9663 80.3216 16.9346 80.4116C16.7925 80.8283 17.7979 81.1334 18.0034 81.1228C20.215 81.0021 21.272 77.4218 21.8152 75.4799C22.7885 72.0367 22.5141 68.5821 21.0662 64.7743C20.9175 64.3838 19.9082 63.8415 19.7776 64.3205C18.5011 69.0029 14.5616 72.7645 16.3475 78.6748C16.4901 79.1661 17.7835 79.5587 17.6249 79.0319Z" fill="#3E1B1B"/>
<path d="M34.0409 49.5816C34.0532 49.6383 34.0655 49.6949 34.0777 49.7516C34.4144 49.7583 34.7501 49.7702 35.0867 49.7769C33.4437 48.4639 32.7333 43.2758 32.7777 41.5808C32.8428 38.6892 34.0158 36.7278 35.5161 34.7633C35.1522 34.6594 34.7833 34.5532 34.4185 34.4545C34.9591 35.0968 35.0746 37.1057 35.1995 37.856C35.5047 39.7403 35.9292 41.5956 35.8844 43.456C35.8392 45.1564 35.5407 46.7428 34.857 48.1248C34.5208 48.7982 34.0682 49.3533 34.2631 50.2707C34.3681 50.7497 35.6526 51.1783 35.533 50.6245C35.2889 49.4804 36.6671 47.5952 36.8891 46.5303C37.1916 45.0826 37.251 43.5255 37.0963 41.9454C36.9296 40.2746 36.5476 38.5232 36.2356 36.8417C36.0784 35.9918 36.0126 35.0839 35.4122 34.3761C35.194 34.1173 34.5173 33.7997 34.3145 34.0673C32.5615 36.3695 31.2276 38.7707 31.5315 42.2884C31.7156 44.4408 32.4447 48.5743 34.353 50.092C34.5549 50.2525 35.4708 50.6379 35.362 50.1172C35.3497 50.0606 35.3374 50.0039 35.3251 49.9472C35.2118 49.4532 33.9272 49.0246 34.0409 49.5816Z" fill="#3E1B1B"/>
<path d="M31.471 58.4716C31.1635 58.1611 35.0242 56.4479 35.282 56.3958C36.0522 56.2277 36.8747 56.166 37.686 56.1416C38.2873 56.1214 39.3712 55.9252 40.0308 56.2766C39.9169 56.0912 39.7983 55.9038 39.6844 55.7184C38.6623 56.9596 37.5198 58.2961 36.2446 59.2292C35.3437 59.8872 34.5087 60.0852 33.2821 59.8475C32.263 59.6515 31.8037 59.2339 30.9541 58.5542C30.5626 58.2391 29.5793 58.279 30.2702 58.8329C31.9338 60.1664 33.5723 61.0482 35.4445 60.7861C37.6887 60.4737 39.4356 58.0108 40.7869 56.3754C40.9421 56.19 40.587 55.8958 40.4405 55.8172C38.6764 54.8815 36.3336 55.2776 34.7079 55.5562C33.3742 55.7869 30.6916 56.5516 30.339 58.1747C30.3182 58.2707 30.4106 58.4049 30.4748 58.4692C30.5049 58.4979 30.5343 58.5315 30.5644 58.5602C30.8736 58.8609 32.0088 59.0174 31.471 58.4716Z" fill="#3E1B1B"/>
<path d="M35.8532 69.0961C37.1113 67.3813 40.0831 67.6334 42.0531 68.0963C44.1022 68.5819 46.0894 69.6022 48.1192 70.1151C47.8938 69.9207 47.6646 69.7198 47.4392 69.5254C47.0831 70.4126 45.7227 71.0099 44.982 71.4349C43.977 72.0078 42.8806 72.659 41.6185 72.5651C40.4577 72.4778 39.1036 71.9218 38.0317 71.1697C37.3779 70.7121 36.0456 68.883 35.3335 68.911C35.9579 68.8821 34.9485 68.1357 34.5901 68.1488C34.5405 68.1534 34.4918 68.1534 34.4376 68.1562C34.1921 68.1656 34.194 68.3834 34.3661 68.5758C36.43 70.9503 38.8371 72.8562 41.6157 73.2403C43.1458 73.4503 44.0755 73.1187 45.3397 72.4563C46.4109 71.8957 48.0918 71.2495 48.592 70.0031C48.701 69.7353 48.0336 69.4436 47.9119 69.4134C45.1011 68.7031 42.4446 67.2591 39.5869 66.9382C38.0214 66.764 35.6835 67.2288 34.7687 68.4751C34.5211 68.8117 35.6364 69.3949 35.8532 69.0961Z" fill="#3E1B1B"/>
<path d="M17.697 82.6073C15.3859 80.5993 12.448 79.8048 9.93769 80.3144C8.565 80.5942 7.55267 81.1655 6.56687 82.1087C6.18017 82.4759 4.78242 83.5539 5.13355 84.3723C5.34999 84.876 5.95759 84.9269 6.33852 85.0365C8.06417 85.5346 9.89695 86.011 11.6161 86.1354C12.9899 86.2322 14.0492 85.9692 15.2227 85.466C16.7188 84.8314 17.3555 84.06 18.3773 82.8126C18.1765 82.805 17.9795 82.8041 17.7787 82.7964C17.8155 82.812 17.847 82.8304 17.8838 82.846C18.5771 83.1805 18.6739 82.5722 17.9852 82.2397C17.9484 82.2241 17.9169 82.2057 17.8801 82.1901C17.716 82.1104 17.3987 82.0329 17.2815 82.1739C16.6013 82.9991 16.1654 83.7782 15.2104 84.3016C14.396 84.7505 13.3913 85.2169 12.4422 85.3513C11.2358 85.5211 9.83007 85.2614 8.57039 84.9244C7.72086 84.699 6.58032 84.5927 5.75873 84.2297C5.9346 84.3865 6.10666 84.5366 6.28253 84.6934C5.8548 83.5078 9.08533 81.6387 9.69577 81.4074C11.909 80.5815 14.7862 80.9432 17.0192 82.8873C17.3986 83.2127 18.36 83.1814 17.697 82.6073Z" fill="#3E1B1B"/>
</svg>
