<svg width="190" height="190" viewBox="0 0 190 190" fill="none" xmlns="http://www.w3.org/2000/svg">
<path fill-rule="evenodd" clip-rule="evenodd" d="M95.369 3.73677C112.445 3.29537 131.243 -5.36837 145.338 5.29756C159.48 15.9992 157.922 39.0455 164.895 56.3506C173.052 76.5938 193.028 93.3337 189.611 115.17C186.169 137.164 164.843 149.049 148.369 161.958C132.095 174.711 114.657 194.649 95.369 189.022C75.568 183.246 73.6294 152.315 59.4239 136.01C48.9544 123.993 32.798 120.467 23.9017 106.99C12.1005 89.1125 -4.07161 68.8326 0.935214 47.4049C5.92488 26.0506 28.663 16.3493 47.0697 7.83769C62.3397 0.776557 78.8213 4.16451 95.369 3.73677Z" fill="#CBD0E3"/>
</svg>
