<svg width="190" height="190" viewBox="0 0 190 190" fill="none" xmlns="http://www.w3.org/2000/svg">
<path fill-rule="evenodd" clip-rule="evenodd" d="M95.1647 0.031147C115.155 -0.938423 127.142 20.9623 142.801 33.0307C157.558 44.4043 176.539 51.7928 184.056 68.5404C191.91 86.0395 192.138 107.089 183.801 124.377C175.873 140.816 156.013 146.713 141.074 157.667C125.714 168.929 114.243 186.751 95.1647 189.366C75.0966 192.117 52.751 185.859 38.7273 171.694C25.3514 158.183 31.4245 136.219 25.0561 118.55C18.4615 100.253 -4.95449 85.382 0.943708 66.864C6.82612 48.3955 34.7706 48.9123 50.8749 37.4892C67.0849 25.9911 75.0938 1.00461 95.1647 0.031147Z" fill="#CBD0E3"/>
</svg>
