<svg width="190" height="190" viewBox="0 0 190 190" fill="none" xmlns="http://www.w3.org/2000/svg">
<path fill-rule="evenodd" clip-rule="evenodd" d="M109.918 0.0119898C131.436 0.425735 151.708 11.6649 166.645 26.8657C180.12 40.5792 183.669 60.0805 187.323 78.7874C190.54 95.2482 191.562 111.861 186.371 127.829C181.158 143.866 171.348 157.826 158.138 168.568C144.212 179.893 128.006 189.962 109.918 190C91.8111 190.038 77.8062 176.588 61.5468 168.772C40.8009 158.799 9.83358 159.165 1.67016 137.963C-6.42145 116.948 17.0361 97.372 26.115 76.7484C34.0917 58.6283 36.8435 38.1206 51.5516 24.6527C67.4234 10.1192 88.21 -0.405401 109.918 0.0119898Z" fill="#CBD0E3"/>
</svg>
