<svg width="190" height="190" viewBox="0 0 190 190" fill="none" xmlns="http://www.w3.org/2000/svg">
<path fill-rule="evenodd" clip-rule="evenodd" d="M87.1642 0.0249271C103.665 0.663561 115.617 15.2114 128.264 26.1031C139.95 36.1675 148.984 47.7265 157.574 60.6632C169.983 79.3528 194.016 96.0971 189.425 118.215C184.928 139.883 155.769 143.326 137.85 155.694C120.816 167.452 107.456 185.589 87.1642 188.798C65.1645 192.276 40.6895 188.489 23.6947 173.743C7.09934 159.343 0.637805 135.466 0.0157506 113.178C-0.512472 94.2515 12.3654 78.8944 20.5742 61.9362C27.3536 47.9308 32.4535 33.3333 43.7482 22.8321C56.0977 11.3503 70.5089 -0.619673 87.1642 0.0249271Z" fill="#CBD0E3"/>
</svg>
