<svg width="190" height="190" viewBox="0 0 190 190" fill="none" xmlns="http://www.w3.org/2000/svg">
<path fill-rule="evenodd" clip-rule="evenodd" d="M91.2235 0.0392149C109.512 -1.06152 120.721 21.2745 135.014 33.7715C148.44 45.5104 163.708 54.4944 172.188 70.828C182.15 90.0159 196.52 114.092 186.73 133.385C176.558 153.43 148.105 146.827 128.907 156.116C115.352 162.675 105.494 175.201 91.2235 179.597C72.3556 185.41 50.9558 196.228 34.0865 185.328C17.2106 174.424 16.6741 148.444 11.2061 127.894C5.93711 108.092 -5.32134 86.7807 2.92834 68.2292C11.1223 49.8031 35.4865 50.6723 50.8081 38.8394C65.8222 27.2441 72.8564 1.14466 91.2235 0.0392149Z" fill="#CBD0E3"/>
</svg>
