<svg width="40" height="40" viewBox="0 0 40 40" fill="none" xmlns="http://www.w3.org/2000/svg">
<path d="M21.3182 10.5669L26.1867 11.6909L25.9057 12.9064L21.0372 11.7824L21.3182 10.5669ZM16.9529 0H15.7048V4.99918H16.9529V0ZM24.553 4.18232L23.7688 3.20863L19.8871 6.3519L20.6713 7.3256L24.553 4.18232ZM11.6923 11.7432L11.4113 10.5277L6.54284 11.6517L6.82384 12.8672L11.6923 11.7432ZM34.4469 21.8722V29.3743C34.4469 35.2491 29.696 40 23.8211 40C19.8217 40 15.8224 38.1246 12.947 33.0011C8.95421 25.6233 3.70016 20.7482 6.20303 18.2454C7.95438 16.494 10.7056 18.2454 13.2019 20.4933V9.37102C13.2019 7.61967 14.5742 6.24735 16.3256 6.24735C18.0769 6.24735 19.4492 7.61967 19.4492 9.37102V15.6184C19.9459 15.2459 20.5732 14.991 21.3247 14.991C22.5729 14.991 23.6969 15.7425 24.2 16.9907C24.8275 16.4875 25.5724 16.2392 26.3239 16.2392C28.0753 16.2392 29.4476 17.6115 29.4476 19.3629C29.9443 18.9904 30.5716 18.7355 31.3231 18.7355C33.0746 18.7486 34.4469 20.1209 34.4469 21.8722ZM33.1987 21.8722C33.1987 20.8724 32.323 19.9967 31.3231 19.9967C30.3233 19.9967 29.4477 20.8724 29.4477 21.8722V22.4996H28.1995V19.3759C28.1995 18.3761 27.3239 17.5004 26.324 17.5004C25.3241 17.5004 24.4485 18.3761 24.4485 19.3759V21.2514H23.2003V18.1278C23.2003 17.1279 22.3247 16.2522 21.3248 16.2522C20.3249 16.2522 19.4493 17.1279 19.4493 18.1278V22.4996H18.2011V9.37102C18.2011 8.37118 17.3254 7.49551 16.3256 7.49551C15.3257 7.49551 14.4501 8.37118 14.4501 9.37102V23.4929C11.823 20.7417 8.45103 17.7422 7.0787 19.1211C5.83054 20.4934 9.3267 24.2444 14.0776 32.4914C16.3256 36.1183 19.0768 38.7388 23.8277 38.7388C28.951 38.7388 33.1987 34.2363 33.1987 29.3678V24.617V21.8722ZM12.9209 6.37151L9.03917 3.22823L8.25498 4.20193L12.1367 7.34521L12.9209 6.37151Z" fill="#3E1B1B"/>
</svg>
