<svg width="42" height="42" viewBox="0 0 42 42" fill="none" xmlns="http://www.w3.org/2000/svg">
<path d="M21 42.0002C32.598 42.0002 42 33.0898 42 22.0982C42 11.1067 32.598 2.19629 21 2.19629C9.40202 2.19629 0 11.1067 0 22.0982C0 33.0898 9.40202 42.0002 21 42.0002Z" fill="#3E1B1B"/>
<path d="M21 39.8039C32.598 39.8039 42 30.8935 42 19.902C42 8.91041 32.598 0 21 0C9.40202 0 0 8.91041 0 19.902C0 30.8935 9.40202 39.8039 21 39.8039Z" fill="#95A2C4"/>
<path d="M20.5 8C17.1024 8 16.6789 8.01641 15.3492 8.07266C14.0141 8.13828 13.111 8.34531 12.3141 8.65469C11.4922 8.97656 10.7922 9.40391 10.1008 10.0992C9.40471 10.7906 8.97346 11.4906 8.65627 12.3125C8.3469 13.1094 8.13987 14.0125 8.07424 15.3477C8.01409 16.6781 8.00159 17.1008 8.00159 20.4984C8.00159 23.8961 8.01799 24.3195 8.07424 25.6492C8.13987 26.9805 8.3469 27.8875 8.65627 28.6844C8.97815 29.5062 9.40549 30.2062 10.1008 30.8977C10.7922 31.5937 11.4922 32.025 12.3141 32.3422C13.111 32.6477 14.018 32.8586 15.3492 32.9242C16.6797 32.9844 17.1024 32.9969 20.5 32.9969C23.8977 32.9969 24.3211 32.9805 25.6508 32.9242C26.9821 32.8586 27.8891 32.6469 28.686 32.3422C29.5078 32.0203 30.2078 31.593 30.8992 30.8977C31.5953 30.2062 32.0266 29.5102 32.3438 28.6844C32.6492 27.8875 32.8602 26.9805 32.9258 25.6492C32.986 24.3187 32.9985 23.8961 32.9985 20.4984C32.9985 17.1008 32.9821 16.6773 32.9258 15.3477C32.8602 14.0164 32.6485 13.1047 32.3438 12.3125C32.0219 11.4906 31.5946 10.7906 30.8992 10.0992C30.2078 9.40312 29.5117 8.97187 28.686 8.65469C27.8891 8.34531 26.9821 8.13828 25.6508 8.07266C24.3203 8.0125 23.8977 8 20.5 8V8ZM20.5 10.25C23.8367 10.25 24.2352 10.2664 25.5539 10.3227C26.7703 10.3797 27.4328 10.5828 27.8727 10.7547C28.4594 10.982 28.8696 11.2508 29.3133 11.6898C29.7485 12.125 30.0172 12.5398 30.2446 13.1266C30.4164 13.5664 30.6196 14.2289 30.6766 15.4453C30.7328 16.7641 30.7492 17.1633 30.7492 20.4992C30.7492 23.8352 30.7328 24.2344 30.6719 25.5531C30.6063 26.7695 30.4032 27.432 30.2321 27.8719C29.9953 28.4586 29.7313 28.8687 29.2953 29.3125C28.8555 29.7477 28.4367 30.0164 27.8547 30.2437C27.4203 30.4156 26.7485 30.6187 25.5274 30.6758C24.2016 30.732 23.811 30.7484 20.4657 30.7484C17.1203 30.7484 16.7305 30.732 15.4032 30.6711C14.1867 30.6055 13.5157 30.4023 13.0758 30.2312C12.4821 29.9945 12.075 29.7305 11.6391 29.2945C11.1992 28.8547 10.9196 28.4359 10.7039 27.8539C10.5289 27.4195 10.3289 26.7477 10.2641 25.5266C10.2196 24.2164 10.1985 23.8102 10.1985 20.4805C10.1985 17.1523 10.2196 16.7453 10.2641 15.4187C10.3289 14.1977 10.5289 13.5273 10.7039 13.0914C10.9196 12.4969 11.2 12.0906 11.6391 11.6508C12.0742 11.2156 12.4821 10.9344 13.0758 10.7141C13.5157 10.543 14.1703 10.3398 15.3914 10.2789C16.7172 10.2312 17.1078 10.2141 20.4485 10.2141L20.5 10.25ZM20.5 14.0836C16.9524 14.0836 14.0836 16.9562 14.0836 20.5C14.0836 24.0477 16.9563 26.9164 20.5 26.9164C24.0477 26.9164 26.9164 24.0437 26.9164 20.5C26.9164 16.9523 24.0438 14.0836 20.5 14.0836ZM20.5 24.6664C18.1969 24.6664 16.3336 22.8031 16.3336 20.5C16.3336 18.1969 18.1969 16.3336 20.5 16.3336C22.8032 16.3336 24.6664 18.1969 24.6664 20.5C24.6664 22.8031 22.8032 24.6664 20.5 24.6664ZM28.675 13.8273C28.675 14.6578 27.9992 15.3281 27.1727 15.3281C26.3422 15.3281 25.6719 14.657 25.6719 13.8273C25.6719 13.0016 26.3469 12.3297 27.1727 12.3297C27.9985 12.3297 28.675 13.0016 28.675 13.8273Z" fill="#3E1B1B"/>
<path d="M20.5 6C17.1024 6 16.6789 6.01641 15.3492 6.07266C14.0141 6.13828 13.111 6.34531 12.3141 6.65469C11.4922 6.97656 10.7922 7.40391 10.1008 8.09922C9.40471 8.79062 8.97346 9.49062 8.65627 10.3125C8.3469 11.1094 8.13987 12.0125 8.07424 13.3477C8.01409 14.6781 8.00159 15.1008 8.00159 18.4984C8.00159 21.8961 8.01799 22.3195 8.07424 23.6492C8.13987 24.9805 8.3469 25.8875 8.65627 26.6844C8.97815 27.5062 9.40549 28.2062 10.1008 28.8977C10.7922 29.5937 11.4922 30.025 12.3141 30.3422C13.111 30.6477 14.018 30.8586 15.3492 30.9242C16.6797 30.9844 17.1024 30.9969 20.5 30.9969C23.8977 30.9969 24.3211 30.9805 25.6508 30.9242C26.9821 30.8586 27.8891 30.6469 28.686 30.3422C29.5078 30.0203 30.2078 29.593 30.8992 28.8977C31.5953 28.2062 32.0266 27.5102 32.3438 26.6844C32.6492 25.8875 32.8602 24.9805 32.9258 23.6492C32.986 22.3187 32.9985 21.8961 32.9985 18.4984C32.9985 15.1008 32.9821 14.6773 32.9258 13.3477C32.8602 12.0164 32.6485 11.1047 32.3438 10.3125C32.0219 9.49062 31.5946 8.79062 30.8992 8.09922C30.2078 7.40312 29.5117 6.97187 28.686 6.65469C27.8891 6.34531 26.9821 6.13828 25.6508 6.07266C24.3203 6.0125 23.8977 6 20.5 6V6ZM20.5 8.25C23.8367 8.25 24.2352 8.26641 25.5539 8.32266C26.7703 8.37969 27.4328 8.58281 27.8727 8.75469C28.4594 8.98203 28.8696 9.25078 29.3133 9.68984C29.7485 10.125 30.0172 10.5398 30.2446 11.1266C30.4164 11.5664 30.6196 12.2289 30.6766 13.4453C30.7328 14.7641 30.7492 15.1633 30.7492 18.4992C30.7492 21.8352 30.7328 22.2344 30.6719 23.5531C30.6063 24.7695 30.4032 25.432 30.2321 25.8719C29.9953 26.4586 29.7313 26.8687 29.2953 27.3125C28.8555 27.7477 28.4367 28.0164 27.8547 28.2437C27.4203 28.4156 26.7485 28.6187 25.5274 28.6758C24.2016 28.732 23.811 28.7484 20.4657 28.7484C17.1203 28.7484 16.7305 28.732 15.4032 28.6711C14.1867 28.6055 13.5157 28.4023 13.0758 28.2312C12.4821 27.9945 12.075 27.7305 11.6391 27.2945C11.1992 26.8547 10.9196 26.4359 10.7039 25.8539C10.5289 25.4195 10.3289 24.7477 10.2641 23.5266C10.2196 22.2164 10.1985 21.8102 10.1985 18.4805C10.1985 15.1523 10.2196 14.7453 10.2641 13.4187C10.3289 12.1977 10.5289 11.5273 10.7039 11.0914C10.9196 10.4969 11.2 10.0906 11.6391 9.65078C12.0742 9.21562 12.4821 8.93437 13.0758 8.71406C13.5157 8.54297 14.1703 8.33984 15.3914 8.27891C16.7172 8.23125 17.1078 8.21406 20.4485 8.21406L20.5 8.25ZM20.5 12.0836C16.9524 12.0836 14.0836 14.9562 14.0836 18.5C14.0836 22.0477 16.9563 24.9164 20.5 24.9164C24.0477 24.9164 26.9164 22.0437 26.9164 18.5C26.9164 14.9523 24.0438 12.0836 20.5 12.0836ZM20.5 22.6664C18.1969 22.6664 16.3336 20.8031 16.3336 18.5C16.3336 16.1969 18.1969 14.3336 20.5 14.3336C22.8032 14.3336 24.6664 16.1969 24.6664 18.5C24.6664 20.8031 22.8032 22.6664 20.5 22.6664ZM28.675 11.8273C28.675 12.6578 27.9992 13.3281 27.1727 13.3281C26.3422 13.3281 25.6719 12.657 25.6719 11.8273C25.6719 11.0016 26.3469 10.3297 27.1727 10.3297C27.9985 10.3297 28.675 11.0016 28.675 11.8273Z" fill="white"/>
</svg>
