<svg width="42" height="42" viewBox="0 0 42 42" fill="none" xmlns="http://www.w3.org/2000/svg">
<path d="M21 42C32.598 42 42 33.0896 42 22.098C42 11.1065 32.598 2.19604 21 2.19604C9.40202 2.19604 0 11.1065 0 22.098C0 33.0896 9.40202 42 21 42Z" fill="#3E1B1B"/>
<path d="M21 39.8039C32.598 39.8039 42 30.8935 42 19.902C42 8.91041 32.598 0 21 0C9.40202 0 0 8.91041 0 19.902C0 30.8935 9.40202 39.8039 21 39.8039Z" fill="#CBD0E3"/>
<path d="M31 20L16 11.3397V28.6603L31 20Z" fill="#3E1B1B"/>
<path d="M31 18L16 9.33974V26.6603L31 18Z" fill="white"/>
</svg>
