<svg width="42" height="42" viewBox="0 0 42 42" fill="none" xmlns="http://www.w3.org/2000/svg">
<path d="M21 42.0002C32.598 42.0002 42 33.0898 42 22.0982C42 11.1067 32.598 2.19629 21 2.19629C9.40202 2.19629 0 11.1067 0 22.0982C0 33.0898 9.40202 42.0002 21 42.0002Z" fill="#3E1B1B"/>
<path d="M21 39.8039C32.598 39.8039 42 30.8935 42 19.902C42 8.91041 32.598 0 21 0C9.40202 0 0 8.91041 0 19.902C0 30.8935 9.40202 39.8039 21 39.8039Z" fill="#95A2C4"/>
<path fill-rule="evenodd" clip-rule="evenodd" d="M9.96335 21.0403C9.96335 15.3642 11.0759 11.8712 20.5 11.8712C29.9241 11.8712 31.0366 15.3642 31.0366 21.0403C31.0366 26.7164 29.9241 30.2094 20.5 30.2094L18.7984 30.147L15.3298 34.0766C15.0681 34.3261 14.8063 34.139 14.8063 33.8895V29.5856C14.4136 29.5856 12.7775 28.8371 12.3194 28.4005C10.8796 26.9659 9.96335 25.9055 9.96335 21.0403ZM8 21.0403C8 13.1811 11.5995 10 20.5 10C29.4005 10 33 13.1811 33 21.0403C33 28.8995 29.4005 32.0806 20.5 32.0806C19.8456 32.0806 19.322 32.0806 18.4058 31.9558L15.9188 34.638C15.4607 35.1369 14.0864 35.3241 14.0864 33.8271V31.2074C13.6937 31.2074 12.7775 30.8331 11.534 30.0846C10.2906 29.2737 8 27.3401 8 21.0403ZM22.5942 23.66C23.0305 23.1194 23.5541 23.0363 24.1649 23.4105L26.5209 25.0946C26.87 25.5105 26.7173 26.0926 26.0628 26.8411C25.4084 27.5896 24.7976 27.9015 24.2304 27.7768C21.918 27.2778 19.6928 26.0303 17.555 24.0343C15.4171 22.0383 14.0864 19.876 13.5628 17.5473C13.5628 16.7157 14.1082 16.0087 15.199 15.4266C15.7661 15.0523 16.2461 15.1563 16.6387 15.7385L18.2749 17.9216C18.5366 18.4206 18.3839 18.878 17.8168 19.2938C15.2644 20.2294 21.1545 26.2798 22.5942 23.66Z" fill="#3E1B1B"/>
<path fill-rule="evenodd" clip-rule="evenodd" d="M9.96335 19.0403C9.96335 13.3642 11.0759 9.87124 20.5 9.87124C29.9241 9.87124 31.0366 13.3642 31.0366 19.0403C31.0366 24.7164 29.9241 28.2094 20.5 28.2094L18.7984 28.147L15.3298 32.0766C15.0681 32.3261 14.8063 32.139 14.8063 31.8895V27.5856C14.4136 27.5856 12.7775 26.8371 12.3194 26.4005C10.8796 24.9659 9.96335 23.9055 9.96335 19.0403ZM8 19.0403C8 11.1811 11.5995 8 20.5 8C29.4005 8 33 11.1811 33 19.0403C33 26.8995 29.4005 30.0806 20.5 30.0806C19.8456 30.0806 19.322 30.0806 18.4058 29.9558L15.9188 32.638C15.4607 33.1369 14.0864 33.3241 14.0864 31.8271V29.2074C13.6937 29.2074 12.7775 28.8331 11.534 28.0846C10.2906 27.2737 8 25.3401 8 19.0403ZM22.5942 21.66C23.0305 21.1194 23.5541 21.0363 24.1649 21.4105L26.5209 23.0946C26.87 23.5105 26.7173 24.0926 26.0628 24.8411C25.4084 25.5896 24.7976 25.9015 24.2304 25.7768C21.918 25.2778 19.6928 24.0303 17.555 22.0343C15.4171 20.0383 14.0864 17.876 13.5628 15.5473C13.5628 14.7157 14.1082 14.0087 15.199 13.4266C15.7661 13.0523 16.2461 13.1563 16.6387 13.7385L18.2749 15.9216C18.5366 16.4206 18.3839 16.878 17.8168 17.2938C15.2644 18.2294 21.1545 24.2798 22.5942 21.66Z" fill="white"/>
<path d="M20 14.0015C20.8171 13.9834 21.6291 14.1284 22.384 14.4274C23.1388 14.7263 23.8199 15.1725 24.3834 15.7373C24.9469 16.3021 25.3804 16.9731 25.6562 17.7072C25.9319 18.4413 26.0438 19.2222 25.9846 20M20.9672 17.0584C21.2156 17.0504 21.463 17.0911 21.6942 17.1782C21.9254 17.2652 22.1353 17.3966 22.311 17.5642C22.4868 17.7319 22.6245 17.9322 22.7157 18.1528C22.8069 18.3734 22.8496 18.6095 22.8412 18.8464L20.9672 17.0584ZM20.5441 15.5011C21.0677 15.5006 21.5861 15.6015 22.0677 15.7977C22.5493 15.994 22.9842 16.2814 23.3459 16.6428C23.7076 17.0041 23.9887 17.4317 24.1721 17.8997C24.3555 18.3677 24.4374 18.8664 24.4129 19.3655L20.5441 15.5011Z" stroke="#3E1B1B" stroke-linecap="round"/>
<path d="M20 13.0015C20.8171 12.9834 21.6291 13.1284 22.384 13.4274C23.1388 13.7263 23.8199 14.1725 24.3834 14.7373C24.9469 15.3021 25.3804 15.9731 25.6562 16.7072C25.9319 17.4413 26.0438 18.2222 25.9846 19M20.9672 16.0584C21.2156 16.0504 21.463 16.0911 21.6942 16.1782C21.9254 16.2652 22.1353 16.3966 22.311 16.5642C22.4868 16.7319 22.6245 16.9322 22.7157 17.1528C22.8069 17.3734 22.8496 17.6095 22.8412 17.8464L20.9672 16.0584ZM20.5441 14.5011C21.0677 14.5006 21.5861 14.6015 22.0677 14.7977C22.5493 14.994 22.9842 15.2814 23.3459 15.6428C23.7076 16.0041 23.9887 16.4317 24.1721 16.8997C24.3555 17.3677 24.4374 17.8664 24.4129 18.3655L20.5441 14.5011Z" stroke="white" stroke-linecap="round"/>
</svg>
