<svg width="42" height="42" viewBox="0 0 42 42" fill="none" xmlns="http://www.w3.org/2000/svg">
<path d="M21 42.0002C32.598 42.0002 42 33.0898 42 22.0982C42 11.1067 32.598 2.19629 21 2.19629C9.40202 2.19629 0 11.1067 0 22.0982C0 33.0898 9.40202 42.0002 21 42.0002Z" fill="#3E1B1B"/>
<path d="M21 39.8039C32.598 39.8039 42 30.8935 42 19.902C42 8.91041 32.598 0 21 0C9.40202 0 0 8.91041 0 19.902C0 30.8935 9.40202 39.8039 21 39.8039Z" fill="#95A2C4"/>
<path d="M28.5535 30.9981H31.8751C31.8751 30.9981 34.2829 30.7728 32.0532 27.858C29.8235 24.9432 27.795 23.6567 29.6454 21.3161C31.4958 18.9756 34.5645 13.8439 31.8233 13.8439H27.8007C27.726 13.8439 27.2721 13.6839 26.9388 14.6434C26.3219 16.4602 25.5857 18.2084 24.7378 19.8696C23.9505 21.2216 23.4908 22.1811 22.8817 21.7668C22.2725 21.3525 22.6978 15.2903 22.6978 15.2903C22.7388 15.0395 22.7362 14.7803 22.6901 14.5308C22.644 14.2814 22.5556 14.0476 22.4309 13.8456C22.3063 13.6437 22.1484 13.4785 21.9682 13.3615C21.7881 13.2444 21.5899 13.1784 21.3876 13.1679C19.9279 12.9643 17.6465 12.8044 16.6179 13.5749C15.8249 14.1564 16.118 14.3018 16.8995 14.6434C17.681 14.985 17.9684 17.2892 17.8419 19.2227C17.7155 21.1562 17.3592 22.5373 16.4972 21.6069C15.6352 20.6765 13.7619 16.2789 13.509 15.4648C13.2562 14.6507 13.1068 13.8293 11.785 13.8584C10.4633 13.8875 9.24505 13.8584 8.84279 13.9238C8.44053 13.9892 7.4981 13.9238 8.3371 15.85C9.1761 17.7762 11.2046 23.5912 13.2562 26.3679C15.3077 29.1446 17.4914 30.9254 19.8992 30.9836C22.307 31.0417 22.4334 30.9836 22.5599 29.3481C22.6863 27.7126 23.169 25.8228 24.3873 27.4291C25.6055 29.0355 27.2146 31.0708 28.5535 30.9981Z" fill="#3E1B1B"/>
<path d="M28.5535 28.9981H31.8751C31.8751 28.9981 34.2829 28.7728 32.0532 25.858C29.8235 22.9432 27.795 21.6567 29.6454 19.3161C31.4958 16.9756 34.5645 11.8439 31.8233 11.8439H27.8007C27.726 11.8439 27.2721 11.6839 26.9388 12.6434C26.3219 14.4602 25.5857 16.2084 24.7378 17.8696C23.9505 19.2216 23.4908 20.1811 22.8817 19.7668C22.2725 19.3525 22.6978 13.2903 22.6978 13.2903C22.7388 13.0395 22.7362 12.7803 22.6901 12.5308C22.644 12.2814 22.5556 12.0476 22.4309 11.8456C22.3063 11.6437 22.1484 11.4785 21.9682 11.3615C21.7881 11.2444 21.5899 11.1784 21.3876 11.1679C19.9279 10.9643 17.6465 10.8044 16.6179 11.5749C15.8249 12.1564 16.118 12.3018 16.8995 12.6434C17.681 12.985 17.9684 15.2892 17.8419 17.2227C17.7155 19.1562 17.3592 20.5373 16.4972 19.6069C15.6352 18.6765 13.7619 14.2789 13.509 13.4648C13.2562 12.6507 13.1068 11.8293 11.785 11.8584C10.4633 11.8875 9.24505 11.8584 8.84279 11.9238C8.44053 11.9892 7.4981 11.9238 8.3371 13.85C9.1761 15.7762 11.2046 21.5912 13.2562 24.3679C15.3077 27.1446 17.4914 28.9254 19.8992 28.9836C22.307 29.0417 22.4334 28.9836 22.5599 27.3481C22.6863 25.7126 23.169 23.8228 24.3873 25.4291C25.6055 27.0355 27.2146 29.0708 28.5535 28.9981Z" fill="white"/>
</svg>
