<svg width="174" height="174" viewBox="0 0 174 174" fill="none" xmlns="http://www.w3.org/2000/svg">
<path fill-rule="evenodd" clip-rule="evenodd" d="M38.144 121.402C31.5779 110.351 40.8776 97.2543 40.8892 84.609C40.8993 73.6827 34.3582 62.6944 38.2072 52.6351C42.3752 41.742 51.3353 32.8267 62.232 28.8301C73.0296 24.8699 84.8627 28.6761 96.31 31.3246C108.247 34.0865 122.312 34.6086 129.881 44.4822C137.404 54.296 131.612 67.9349 133.623 79.9998C135.893 93.6214 147.547 107.044 142.386 119.531C137.193 132.099 121.92 136.908 108.741 140.209C96.7049 143.225 84.329 140.397 72.1008 137.14C59.8213 133.868 44.7197 132.469 38.144 121.402Z" fill="#CBD0E3"/>
</svg>
