<svg width="253" height="450" viewBox="0 0 253 450" fill="none" xmlns="http://www.w3.org/2000/svg">
<path d="M133.913 230.597C132.345 227.919 130.753 225.584 128.53 223.41C124.897 219.858 120.328 217.313 116.57 213.921C117.317 215.76 118.536 217.666 119.249 219.245C120.568 222.192 122.003 225.072 123.911 227.675C127.27 232.243 131.284 236.803 137.322 237.113C136.783 234.871 135.041 232.512 133.913 230.597Z" fill="#CBD0E3"/>
<path d="M142.298 202.182C143.749 201.544 145.134 200.696 146.478 199.848C149.688 197.833 151.77 195.146 154.017 192.14C157.7 187.202 159.458 181.417 160.785 175.472C158.711 176.505 156.572 178.176 154.78 179.418C152.01 181.341 149.48 183.625 147.208 186.128C142.663 191.124 140.291 197.035 138.267 203.383C139.569 203.35 141.386 202.577 142.298 202.182Z" fill="#CBD0E3"/>
<path d="M150.127 243.142C147.224 244.326 144.23 245.435 141.593 247.173C138.748 249.045 136.202 251.9 134.245 254.738C135.597 255.486 137.189 255.284 138.665 255.469C141.211 255.796 142.92 255.419 145.251 254.285C148.377 252.774 151.405 250.825 154.166 248.726C158.604 245.351 161.241 240.732 164.194 236.207C159.798 239.07 155.07 241.127 150.127 243.142Z" fill="#CBD0E3"/>
<path d="M123.554 137.745C123.877 137.375 124.242 137.073 124.649 136.813C124.607 136.796 124.566 136.779 124.533 136.745C123.388 135.78 122.89 133.958 121.281 133.798C119.971 133.672 118.445 134.705 117.665 135.721C116.537 137.191 117.035 138.887 117.649 140.457C117.997 141.339 118.752 143.74 120.021 143.639C120.411 143.606 120.576 143.908 120.552 144.219C121.281 144.227 122.053 144.378 122.841 144.647C123.595 144.907 124.325 145.243 125.047 145.604C124.79 145.293 124.549 144.974 124.317 144.647C122.89 142.648 121.704 139.861 123.554 137.745Z" fill="#FFAFC8"/>
<path d="M127.742 135.847C127.328 133.538 127.137 130.901 127.9 128.861C127.626 128.676 127.369 128.483 127.062 128.273C126.166 127.66 125.312 127.82 124.35 128.181C122.268 128.953 121.779 130.658 122.243 132.74C123.612 133.295 124.176 134.898 125.395 135.931C125.536 136.049 125.586 136.183 125.586 136.309C126.266 136.04 126.996 135.881 127.742 135.847Z" fill="#FFAFC8"/>
<path d="M133.407 141.179C132.511 139.424 131.491 137.963 129.567 137.359C129.401 137.308 129.227 137.266 129.053 137.233C128.82 137.61 128.157 137.636 127.991 137.123C126.183 137.107 124.367 137.98 123.944 139.886C123.429 142.212 125.544 144.521 127.054 146.074C128.696 147.754 130.305 148.4 132.196 149.139C132.254 149.106 132.312 149.072 132.379 149.055C133.647 148.627 134.817 148.971 136.053 149.358C136.102 149.374 136.152 149.391 136.202 149.4C136.028 148.594 135.845 147.754 135.688 146.897C135.082 144.932 134.344 143.01 133.407 141.179Z" fill="#FFAFC8"/>
<path d="M127.858 148.426C127.319 148.165 126.797 147.913 126.316 147.645C124.972 146.906 123.562 146.033 122.069 145.646C120.485 145.243 119.689 145.176 118.586 146.402C117.599 147.485 117.383 148.157 117.566 149.61C118.155 154.312 124.632 154.312 128.057 153.699C129.6 153.422 131.11 152.968 132.611 152.498C131.931 151.994 131.375 151.373 131.201 150.617C131.159 150.441 131.209 150.273 131.3 150.147C130.114 149.761 128.995 149.349 127.892 148.451C127.875 148.451 127.867 148.434 127.858 148.426Z" fill="#FFAFC8"/>
<path d="M153.743 143.908C153.702 143.774 153.669 143.639 153.627 143.505C153.445 143.471 153.262 143.446 153.08 143.438C151.264 143.32 149.14 144.361 147.631 145.235C147.307 145.428 146.984 145.629 146.669 145.839C145.383 148.308 143.542 150.533 141.211 151.751C141.012 152.154 140.83 152.557 140.681 152.985C140.681 153.01 140.672 153.044 140.672 153.069C140.681 153.077 140.689 153.077 140.689 153.077C142.721 155.017 147.158 155.42 149.671 154.723C152.259 154.009 154.929 152.196 156.414 149.912C157.832 147.737 157.036 145.193 155.087 144.042C154.929 144.126 154.772 144.227 154.606 144.294C154.233 144.471 153.86 144.303 153.743 143.908Z" fill="#FFAFC8"/>
<path d="M156.248 143.245C157.608 143.975 158.612 145.193 158.678 146.973C158.711 147.838 158.504 148.669 158.156 149.459C158.172 149.492 158.197 149.509 158.214 149.542C158.131 149.358 159.35 149.072 159.549 149.03C160.569 148.778 161.216 148.694 162.112 148.023C163.19 147.208 164.169 146.175 164.318 144.756C164.716 141.003 161.1 140.012 158.247 140.726C158.239 140.726 158.222 140.726 158.214 140.726C157.708 141.7 157.044 142.565 156.248 143.245Z" fill="#FFAFC8"/>
<path d="M128.945 135.914C130.106 136.074 131.226 136.544 132.097 137.3C133.349 138.383 134.328 139.886 135.124 141.549C135.132 139.34 135.555 137.191 136.733 135.301C137.065 134.772 137.488 134.277 137.977 133.815C138.309 132.304 137.247 130.036 136.492 128.718C135.489 126.963 133.581 126.392 131.707 126.871C130.604 127.148 129.849 127.711 129.351 128.441C129.509 128.794 129.302 129.281 128.903 129.306C128.14 131.229 128.522 133.832 128.945 135.914Z" fill="#FFAFC8"/>
<path d="M145.748 144.991C146.105 144.286 146.412 143.564 146.661 142.867C147.838 139.558 148.344 133.723 143.741 132.749C139.578 131.867 136.832 136.72 136.426 140.087C136.202 141.985 136.376 143.891 136.691 145.781C137.114 147.216 137.454 148.627 137.753 149.895C138.217 150.063 138.682 150.256 139.105 150.525C139.437 150.726 139.785 151.037 140.075 151.398C141.319 148.82 143.351 146.62 145.748 144.991Z" fill="#FFAFC8"/>
<path d="M148.336 141.364C148.137 142.204 147.863 143.06 147.531 143.916C148.435 143.438 149.373 143.043 150.318 142.741C151.662 142.304 153.403 142.279 154.954 142.733C157.484 140.961 158.703 137.065 158.073 134.185C157.501 131.548 155.153 130.078 152.64 131.212C150.658 132.102 149.588 133.689 148.518 135.494C148.46 135.587 148.394 135.654 148.311 135.696C148.817 137.568 148.726 139.743 148.336 141.364Z" fill="#FFAFC8"/>
<path d="M145.416 131.892C146.544 132.379 147.316 133.269 147.83 134.336C147.921 134.185 148.021 134.033 148.112 133.882C148.004 133.672 147.996 133.404 148.203 133.177C149.057 132.295 148.352 129.625 148.07 128.592C147.647 127.047 146.918 125.301 145.184 124.973C141.352 124.243 138.607 129.054 140.125 132.312C141.817 131.472 143.749 131.179 145.416 131.892Z" fill="#FFAFC8"/>
<path d="M118.213 271.599C122.31 270.348 125.918 266.477 128.563 263.202C131.275 259.86 133.515 256.057 135.074 252.026C138.79 242.462 138.897 231.286 138.781 221.151C138.64 209.63 137.371 198.303 136.492 186.833C136.053 181.073 135.621 175.287 135.447 169.51C135.273 163.909 135.066 158.082 136.169 152.565C136.318 151.818 135.198 151.449 135.041 152.196C133.108 161.894 134.336 172.357 134.991 182.139C135.704 192.795 137.131 203.392 137.463 214.072C137.794 224.669 137.993 235.694 135.646 246.098C134.576 250.825 132.619 255.276 129.957 259.306C127.245 263.404 122.816 268.946 117.964 270.424C117.234 270.65 117.483 271.818 118.213 271.599Z" fill="#3E1B1B"/>
<path d="M132.802 150.239C132.461 150.071 132.296 149.987 131.939 149.878C131.516 149.752 131.076 150.13 131.184 150.575C131.582 152.288 133.88 153.363 135.373 153.774C136.675 154.136 138.798 154.874 140.042 153.976C141.469 152.943 140.2 151.146 139.105 150.466C138.168 149.887 137.098 149.618 136.061 149.299C134.825 148.913 133.656 148.568 132.387 148.997C132.155 149.072 131.914 149.274 131.922 149.551C131.956 151.104 133.034 151.717 134.303 152.33C135.116 152.716 136.575 153.59 137.355 152.658C139.072 150.6 132.918 149.862 132.246 149.803C131.823 149.769 131.599 150.164 131.64 150.525C131.873 152.775 136.675 154.245 138.433 153.732C138.674 153.657 138.889 153.455 138.898 153.178C138.906 151.826 137.72 151.18 136.683 150.584C135.422 149.853 134.153 149.24 132.669 149.383C132.362 149.408 132.146 149.811 132.221 150.097C132.826 152.397 137.206 153.909 139.279 153.271C139.611 153.17 139.76 152.901 139.727 152.557C139.47 149.987 134.95 149.962 136.426 152.347C136.824 152.994 137.877 152.439 137.471 151.784C137.23 151.491 137.247 151.44 137.529 151.642C138.018 151.86 138.367 152.255 138.574 152.809C138.723 152.574 138.873 152.33 139.022 152.095C137.653 152.515 133.797 151.432 133.374 149.828C133.225 150.063 133.075 150.307 132.926 150.542C133.847 150.458 137.728 151.726 137.711 153.111C137.869 152.926 138.018 152.742 138.176 152.557C137.015 152.901 132.943 151.751 132.785 150.265C132.586 150.508 132.379 150.752 132.18 150.987C133.623 151.104 134.792 151.39 136.111 151.919C136.517 152.087 136.451 152.011 136.086 151.793C135.796 151.616 135.389 151.524 135.082 151.373C134.336 151.02 133.125 150.634 133.1 149.593C132.943 149.778 132.793 149.962 132.636 150.147C134.037 149.677 135.63 150.365 136.99 150.81C137.637 151.029 138.358 151.272 138.873 151.742C139.661 152.465 139.412 153.153 138.367 153.136C137.413 153.12 136.434 152.817 135.53 152.549C134.585 152.271 132.619 151.432 132.345 150.29C132.097 150.525 131.839 150.752 131.591 150.987C131.79 151.062 131.98 151.138 132.18 151.213C132.843 151.583 133.482 150.575 132.802 150.239Z" fill="#3E1B1B"/>
<path d="M133.714 149.702C131.126 148.627 129.111 148.149 127.046 146.033C125.528 144.479 123.413 142.17 123.935 139.844C124.483 137.375 127.369 136.637 129.55 137.317C131.466 137.913 132.495 139.382 133.39 141.137C134.858 144.026 135.887 147.124 136.625 150.281C136.799 151.029 137.952 150.777 137.778 150.021C136.816 145.907 135.397 140.13 132.08 137.249C129.725 135.209 125.652 135.268 123.537 137.695C121.688 139.811 122.882 142.598 124.292 144.588C125.296 146.007 126.531 147.317 127.875 148.409C129.608 149.82 131.375 150.013 133.357 150.836C134.062 151.13 134.419 149.996 133.714 149.702Z" fill="#3E1B1B"/>
<path d="M137.512 149.853C136.816 146.662 136.02 143.337 136.418 140.045C136.824 136.678 139.569 131.825 143.733 132.707C148.336 133.681 147.822 139.516 146.652 142.825C145.591 145.823 143.517 149.173 140.631 150.668C139.959 151.02 140.507 152.078 141.187 151.726C144.902 149.803 147.39 145.302 148.336 141.322C149.066 138.265 148.775 133.294 145.408 131.85C142.348 130.532 138.375 132.623 136.725 135.251C133.979 139.626 135.348 145.411 136.368 150.105C136.525 150.861 137.678 150.6 137.512 149.853Z" fill="#3E1B1B"/>
<path d="M140.647 152.96C141.867 149.618 144.595 146.948 147.614 145.193C149.124 144.311 151.247 143.27 153.063 143.396C156.356 143.614 158.23 147.057 156.389 149.878C154.905 152.162 152.242 153.976 149.646 154.69C147.133 155.387 142.688 154.984 140.664 153.044C140.117 152.515 139.246 153.329 139.793 153.858C142.48 156.428 147.805 156.755 151.089 155.437C154.258 154.161 158.794 150.903 158.653 146.931C158.512 142.825 153.37 141.708 150.302 142.691C145.624 144.194 141.236 147.888 139.52 152.599C139.262 153.321 140.382 153.682 140.647 152.96Z" fill="#3E1B1B"/>
<path d="M134.435 150.928C132.984 149.517 131.126 148.871 129.36 147.947C127.203 146.814 125.13 145.395 122.816 144.597C119.813 143.556 116.902 144.303 116.38 147.779C115.799 151.625 118.196 154.01 121.738 154.791C126.905 155.933 131.632 153.749 136.567 152.54C137.305 152.356 137.056 151.188 136.31 151.373C133.54 152.053 130.844 153.162 128.033 153.657C124.599 154.27 118.121 154.27 117.541 149.568C117.358 148.107 117.574 147.443 118.561 146.36C119.672 145.134 120.469 145.201 122.044 145.604C123.537 145.991 124.947 146.856 126.291 147.603C128.572 148.862 131.682 149.92 133.565 151.743C134.112 152.272 134.983 151.465 134.435 150.928Z" fill="#3E1B1B"/>
<path d="M129.111 136.771C128.397 133.471 127.286 127.946 131.682 126.829C133.565 126.35 135.472 126.921 136.467 128.676C137.222 129.994 138.292 132.27 137.952 133.781C137.786 134.529 138.906 134.898 139.08 134.151C139.52 132.186 138.333 129.256 137.23 127.635C136.094 125.972 134.22 125.284 132.271 125.519C126.399 126.216 127.012 132.665 127.958 137.031C128.124 137.778 129.277 137.518 129.111 136.771Z" fill="#3E1B1B"/>
<path d="M120.004 143.589C118.743 143.69 117.98 141.288 117.632 140.407C117.018 138.845 116.521 137.149 117.649 135.671C118.428 134.655 119.946 133.622 121.265 133.748C122.874 133.908 123.371 135.73 124.516 136.695C125.088 137.182 125.967 136.376 125.387 135.881C123.836 134.571 123.355 132.337 120.95 132.497C119.233 132.606 117.3 133.882 116.396 135.352C115.409 136.947 115.799 138.803 116.405 140.457C116.96 141.952 117.972 144.933 119.954 144.773C120.684 144.723 120.759 143.53 120.004 143.589Z" fill="#3E1B1B"/>
<path d="M148.502 135.436C149.572 133.63 150.642 132.043 152.624 131.153C155.137 130.028 157.484 131.498 158.056 134.126C158.761 137.333 157.169 141.809 154.025 143.203C154.307 143.337 154.598 143.471 154.88 143.606C154.838 143.463 154.797 143.32 154.755 143.186C154.54 142.447 153.387 142.707 153.602 143.446C153.644 143.589 153.685 143.732 153.727 143.866C153.843 144.261 154.216 144.429 154.581 144.269C158.911 142.355 160.569 135.872 158.479 131.85C157.484 129.944 155.709 129.172 153.611 129.575C150.642 130.137 148.966 132.354 147.515 134.789C147.117 135.452 148.112 136.091 148.502 135.436Z" fill="#3E1B1B"/>
<path d="M140.117 132.27C138.591 129.012 141.336 124.201 145.176 124.931C146.909 125.259 147.631 127.005 148.062 128.55C148.344 129.583 149.049 132.253 148.195 133.135C147.664 133.681 148.46 134.562 148.999 134.017C150.401 132.564 149.572 129.272 148.999 127.568C148.402 125.788 147.307 124.033 145.325 123.722C140.531 122.958 137.148 128.71 139.072 132.833C139.395 133.53 140.44 132.967 140.117 132.27Z" fill="#3E1B1B"/>
<path d="M122.227 132.698C121.771 130.616 122.252 128.911 124.333 128.139C125.296 127.778 126.142 127.627 127.046 128.231C127.593 128.601 128.008 128.978 128.638 129.222C129.351 129.499 129.708 128.357 129.003 128.08C127.966 127.685 127.336 126.695 126.166 126.577C125.097 126.476 123.869 126.946 122.932 127.45C120.9 128.542 120.618 130.885 121.074 132.95C121.232 133.706 122.384 133.454 122.227 132.698Z" fill="#3E1B1B"/>
<path d="M158.222 140.684C161.075 139.97 164.691 140.961 164.293 144.714C164.144 146.133 163.165 147.166 162.087 147.981C161.2 148.652 160.544 148.736 159.524 148.988C159.334 149.039 158.114 149.316 158.189 149.5C157.882 148.795 156.837 149.358 157.144 150.063C157.169 150.122 157.194 150.181 157.219 150.239C157.293 150.407 157.517 150.567 157.708 150.558C161.175 150.374 165.537 148.291 165.488 144.21C165.471 142.531 164.559 140.734 163.107 139.869C161.424 138.862 159.756 139.072 157.957 139.517C157.235 139.701 157.484 140.868 158.222 140.684Z" fill="#3E1B1B"/>
<path d="M137.355 151.969C138.79 150.122 139.437 147.62 140.1 145.403C140.507 144.051 140.797 142.657 141.087 141.272C141.344 140.037 141.261 138.895 141.228 137.644C141.22 137.258 140.631 137.233 140.639 137.611C140.672 139.005 140.706 140.205 140.407 141.574C140.142 142.8 139.893 144.017 139.528 145.218C138.881 147.376 138.234 149.853 136.849 151.65C136.617 151.952 137.123 152.272 137.355 151.969Z" fill="#3E1B1B"/>
<path d="M137.969 151.91C140.681 152.263 142.862 151.977 145.317 150.735C146.636 150.071 147.954 149.416 149.281 148.778C150.434 148.224 151.371 147.351 152.483 146.797C152.823 146.629 152.549 146.1 152.209 146.268C151.247 146.738 150.476 147.51 149.514 147.997C148.352 148.585 147.158 149.106 145.997 149.702C144.753 150.348 143.509 151.054 142.124 151.348C140.755 151.633 139.37 151.49 138.002 151.314C137.62 151.264 137.595 151.86 137.969 151.91Z" fill="#3E1B1B"/>
<path d="M129.102 141.91C129.418 143.127 130.529 144.202 131.284 145.168C132.262 146.419 133.299 147.678 134.427 148.795C135.306 149.66 136.31 150.391 137.363 151.004C137.877 151.306 138.416 151.583 138.989 151.768C139.121 151.81 140.548 152.02 140.556 152.045C140.706 152.397 141.228 152.12 141.079 151.768C141.054 151.709 141.029 151.65 141.004 151.591C140.963 151.499 140.855 151.432 140.755 151.432C138.392 151.423 136.102 149.685 134.51 148.031C133.714 147.2 132.967 146.31 132.238 145.42C131.416 144.42 129.99 143.035 129.658 141.767C129.575 141.414 129.003 141.54 129.102 141.91Z" fill="#3E1B1B"/>
<path d="M122.708 151.088C125.561 151.994 127.842 153.254 130.919 152.851C134.087 152.431 137.247 152.23 140.233 150.945C140.581 150.794 140.307 150.265 139.959 150.416C137.164 151.625 134.253 151.759 131.292 152.196C129.683 152.431 128.215 152.448 126.656 151.927C125.387 151.507 124.176 150.928 122.899 150.517C122.525 150.399 122.343 150.97 122.708 151.088Z" fill="#3E1B1B"/>
<path d="M137.156 203.392C137.181 203.442 137.214 203.484 137.239 203.534C137.496 203.963 138.159 203.946 138.325 203.442C140.374 196.968 142.754 190.939 147.374 185.851C149.646 183.348 152.176 181.064 154.946 179.142C157.061 177.672 159.649 175.606 162.054 174.708C161.772 174.473 161.498 174.229 161.216 173.994C159.856 180.359 158.114 186.598 154.191 191.863C151.944 194.877 149.862 197.556 146.652 199.571C145.309 200.419 143.924 201.267 142.472 201.905C141.386 202.384 139.005 203.4 137.745 203.039C137.015 202.829 136.65 203.963 137.38 204.181C139.702 204.853 142.937 203.073 144.911 201.989C148.079 200.243 150.758 198.27 153.022 195.398C158.073 188.999 160.636 182.341 162.344 174.355C162.46 173.81 161.996 173.457 161.506 173.642C158.836 174.641 155.925 176.958 153.602 178.646C150.783 180.687 148.211 183.071 145.922 185.699C141.51 190.771 139.213 196.725 137.206 203.064C137.57 203.031 137.927 202.997 138.292 202.972C138.267 202.921 138.234 202.879 138.209 202.829C137.811 202.174 136.766 202.728 137.156 203.392Z" fill="#3E1B1B"/>
<path d="M139.055 203.392C142.016 201.813 143.907 199.126 146.296 196.842C148.568 194.676 151.388 192.744 153.279 190.209C154.946 187.983 156.281 185.271 157.542 182.786C158.164 181.551 158.496 180.225 158.993 178.957C159.707 177.135 161.142 175.573 162.22 173.961C162.643 173.323 161.647 172.676 161.224 173.314C159.74 175.539 158.363 177.361 157.476 179.889C156.456 182.803 154.706 185.607 153.097 188.227C151.463 190.889 148.85 192.921 146.544 194.978C143.832 197.396 141.734 200.587 138.491 202.317C137.836 202.695 138.383 203.753 139.055 203.392Z" fill="#3E1B1B"/>
<path d="M137.819 236.853C131.599 236.694 127.502 232.05 124.085 227.398C122.169 224.795 120.742 221.907 119.424 218.968C118.437 216.768 116.446 213.938 116.139 211.537C115.799 211.713 115.467 211.889 115.127 212.074C119.125 216.306 124.524 219.06 128.696 223.133C130.919 225.307 132.511 227.642 134.079 230.32C135.273 232.361 137.181 234.905 137.595 237.265C137.728 238.02 138.881 237.76 138.748 237.004C138.383 234.871 136.932 232.772 135.837 230.917C134.319 228.339 132.976 225.912 130.935 223.729C126.473 218.959 120.435 215.97 115.998 211.259C115.567 210.806 114.92 211.226 114.986 211.797C115.326 214.484 117.491 217.566 118.602 220.026C120.062 223.259 121.746 226.265 123.894 229.078C127.394 233.671 131.616 237.894 137.761 238.054C138.516 238.062 138.574 236.87 137.819 236.853Z" fill="#3E1B1B"/>
<path d="M138.698 236.651C136.409 236.794 133.05 233.393 131.557 231.974C130.023 230.513 128.497 229.027 127.112 227.432C123.96 223.813 120.07 220.059 117.715 215.827C117.342 215.156 116.297 215.71 116.67 216.39C117.972 218.733 119.938 220.798 121.655 222.83C123.587 225.114 125.379 227.532 127.477 229.649C129.235 231.429 131.027 233.2 132.992 234.737C134.469 235.896 136.617 237.978 138.632 237.844C139.387 237.802 139.453 236.61 138.698 236.651Z" fill="#3E1B1B"/>
<path d="M133.988 255.091C135.995 252.051 138.715 248.894 141.775 246.887C144.413 245.149 147.407 244.041 150.31 242.857C156.265 240.43 161.905 237.961 167.047 234.065C166.748 233.813 166.45 233.562 166.151 233.301C162.386 238.608 159.657 244.402 154.357 248.432C151.595 250.54 148.56 252.48 145.441 253.991C143.102 255.125 141.402 255.503 138.856 255.175C137.338 254.982 135.688 255.217 134.311 254.377C133.656 253.983 133.025 254.99 133.672 255.385C134.933 256.149 136.003 256.132 137.454 256.241C138.947 256.351 140.249 256.829 141.767 256.611C145.64 256.057 149.547 253.202 152.715 251.061C155.709 249.045 158.488 246.753 160.669 243.839C163.049 240.674 164.857 237.172 167.146 233.939C167.569 233.352 166.748 232.797 166.251 233.175C160.387 237.617 153.727 240.103 147.001 242.916C141.145 245.368 136.542 249.071 133.009 254.436C132.561 255.091 133.565 255.738 133.988 255.091Z" fill="#3E1B1B"/>
<path d="M133.689 254.638C139.652 252.849 146.022 250.75 151.488 247.693C156.381 244.964 160.652 240.657 165.065 237.248C165.67 236.786 164.865 235.904 164.26 236.366C159.922 239.708 155.709 243.932 150.932 246.635C145.574 249.667 139.287 251.707 133.432 253.462C132.71 253.689 132.959 254.856 133.689 254.638Z" fill="#3E1B1B"/>
<path d="M159.32 289.746C158.43 289.026 158.94 289.199 160.09 289.452C161.559 289.775 162.588 290.607 163.687 291.539C164.087 291.875 165.129 292.737 165.979 293.561C163.681 292.471 161.33 291.379 159.32 289.746Z" fill="#CBD0E3"/>
<path d="M166.478 297.847C165.691 297.974 163.874 297.703 163.449 297.727C161.925 297.814 160.579 298.18 158.963 298.089C157.222 297.991 154.414 297.58 152.674 296.274C149.606 293.968 154.382 294 155.755 294.151C159.469 294.554 162.858 295.486 166.478 297.847C166.481 297.842 166.478 297.847 166.478 297.847Z" fill="#CBD0E3"/>
<path d="M163.839 302.413C163.51 300.784 164.352 299.495 165.114 298.415C165.625 297.694 166.317 297.1 167.107 296.684C167.23 296.649 167.342 296.613 167.443 296.561C167.456 296.556 167.476 296.556 167.493 296.546C168.106 298.089 168.079 299.964 168.115 301.192C168.139 302.248 167.935 303.729 167.206 304.371C165.885 305.523 164.199 304.182 163.839 302.413Z" fill="#CBD0E3"/>
<path d="M184.249 300.826C183.389 300.107 182.54 299.388 181.681 298.669C181.705 298.282 181.72 297.895 181.744 297.509C181.992 295.62 182.404 293.76 183.252 292.242C183.592 291.627 184.046 291.125 184.442 290.57C185.565 292.491 186.269 294.39 186.312 296.385C186.337 297.668 186.125 298.911 185.473 299.801C185.292 300.042 184.668 300.902 184.249 300.826Z" fill="#CBD0E3"/>
<path d="M178.822 285.976C178.155 285.561 177.472 285.108 176.84 284.644C175.882 283.945 175.097 283.645 176.057 283.282C176.929 282.956 177.422 283.526 178.394 284.219C179.125 284.742 179.836 285.291 180.529 285.855C181.133 286.345 182.332 287.312 182.922 288.129C181.514 287.515 180.131 286.79 178.822 285.976Z" fill="#CBD0E3"/>
<path d="M199.345 284.575C200.197 287.154 200.984 291.16 199.077 292.451C197.215 293.717 195.8 290.596 195.845 289.098C195.869 288.086 196.175 287.094 196.398 286.175C196.848 284.295 197.617 282.665 198.475 281.074C198.858 282.221 199.141 283.953 199.345 284.575Z" fill="#CBD0E3"/>
<path d="M198.24 278.771C196.95 278.174 195.461 277.103 194.487 276.475C193.07 275.562 190.304 274.222 189.176 272.969C187.769 271.401 189.994 272.137 190.917 272.517C192.443 273.142 193.837 274.062 195.085 275.124C195.931 275.844 197.563 277.505 198.24 278.771Z" fill="#CBD0E3"/>
<path d="M211.508 269.929C211.592 269.936 211.677 269.922 211.759 269.883C212.074 269.729 214.629 273.449 214.787 273.735C216.024 276.01 216.122 278.177 215.296 279.846C215.312 280.434 215.019 280.778 214.421 280.868C213.934 281.632 213.423 281.464 212.891 280.361C212.093 279.377 211.991 279.206 211.796 278.237C211.565 277.069 211.545 275.953 211.275 274.769C211.026 273.695 210.725 272.66 210.722 271.644C210.716 271.136 210.812 270.685 210.902 270.228C211.258 270.314 211.456 270.162 211.508 269.929Z" fill="#CBD0E3"/>
<path d="M203.864 265.154C204.834 265.605 210.339 268.555 210.742 269.996C209.894 269.678 209.026 269.272 208.196 268.979C206.973 268.546 205.746 268.157 204.528 267.705C203.324 267.257 202.1 266.761 200.949 266.098C200.206 265.668 198.11 264.428 197.966 263.714C197.706 262.451 202.955 264.733 203.864 265.154Z" fill="#CBD0E3"/>
<path d="M226.847 253.594C228.017 254.467 229.119 255.443 230.09 256.509C231.405 257.952 233.857 261.223 231.796 261.897C230.656 262.269 228.688 260.474 227.909 259.381C227.127 258.293 226.828 257.139 226.416 256.032C225.952 254.779 225.004 253.238 224.535 251.849C225.348 252.379 226.224 253.124 226.847 253.594Z" fill="#CBD0E3"/>
<path d="M211.247 247.927C212.715 248.257 214.218 248.842 215.681 249.462C217.208 250.108 221.35 251.598 223.081 253.139C223.061 253.156 223.034 253.155 223.02 253.177C222.786 253.423 220.748 252.845 220.328 252.773C219.024 252.528 217.73 252.297 216.432 252.07C214.534 251.741 210.069 251.166 208.317 249.616C205.688 247.306 210.175 247.691 211.247 247.927Z" fill="#CBD0E3"/>
<path d="M228.978 234.819C227.991 235.234 226.195 235.492 225.44 235.652C223.732 236.018 221.74 235.942 219.924 236.109C218.092 236.271 214.815 236.414 212.68 234.861C211.74 234.592 211.584 234.24 212.199 233.795C212.264 233.283 212.571 233.03 213.112 233.034C213.638 232.827 214.387 232.724 214.978 232.614C216.552 232.328 218.199 232.469 219.975 232.694C222.487 233.008 226.106 233.163 229.022 234.312C228.934 234.44 228.918 234.621 228.978 234.819Z" fill="#CBD0E3"/>
<path d="M239.606 237.282C241.409 238.429 243.047 239.482 244.27 241.125C244.932 242.02 246.23 243.532 244.142 243.436C243.572 243.412 242.512 242.614 242.027 242.302C239.008 240.338 236.27 237.593 234.303 234.943C233.991 234.525 233.676 234.06 233.353 233.595C233.929 233.929 234.496 234.262 235.039 234.568C236.584 235.435 238.111 236.329 239.606 237.282Z" fill="#CBD0E3"/>
<path d="M203.147 218.124C208.753 223.935 210.443 232.668 206.234 235.789C201.898 239.003 193.234 235.172 187.421 230.038C181.52 224.825 176.72 216.739 175.686 210.432C174.485 203.125 178.843 196.673 185.128 195.526C199.495 192.91 220.058 213.145 227.708 227.908C236.788 245.421 232.777 262.332 224.182 271.728C218.577 277.857 210.798 281.863 202.163 284.299C197.738 285.552 193.047 286.473 188.197 287.003C183.413 287.527 178.327 286.898 173.297 286.814C172.363 286.795 171.752 285.226 172.687 285.245C176.331 285.307 180.154 285.9 183.711 285.744C187.554 285.576 191.19 284.978 194.75 284.282C201.596 282.934 208.03 280.88 213.593 277.678C224.523 271.379 231.987 260.113 231.185 244.831C230.431 230.489 219.37 214.32 204.69 203.601C196.593 197.69 187.3 194.709 181.911 198.865C177.374 202.365 175.57 208.792 179.085 216.481C182.711 224.413 189.993 232.856 198.449 234.908C202.87 235.982 206.168 234.863 206.797 231.016C207.402 227.333 205.94 222.733 202.187 218.839C201.324 217.954 202.298 217.25 203.147 218.124Z" fill="#3E1B1B"/>
<path d="M167.208 297.59C163.339 294.851 159.786 293.721 155.889 293.125C154.508 292.915 149.759 292.666 152.863 295.054C154.623 296.406 157.429 296.934 159.166 297.108C160.778 297.271 162.112 296.976 163.628 296.961C164.157 296.954 166.862 297.507 167.008 297.058C167.23 296.358 163.998 293.355 163.196 292.587C162.006 291.447 160.9 290.44 159.342 290.003C158.124 289.659 157.579 289.439 158.538 290.319C161.124 292.695 164.184 294.19 167.076 295.842C168.073 296.411 169.395 297.26 168.857 298.094C168.71 298.322 168.227 298.332 167.991 298.432C167.26 298.738 166.634 299.205 166.169 299.779C165.486 300.631 164.741 301.654 165.075 303.014C165.433 304.485 166.992 305.661 168.176 304.771C168.829 304.275 168.992 303.061 168.95 302.195C168.885 300.861 168.892 298.602 167.551 297.206C167.927 297.274 168.306 297.337 168.682 297.405C168.611 297.484 168.545 297.572 168.475 297.652C168.051 298.176 166.682 297.178 167.111 296.646C167.182 296.567 167.248 296.478 167.318 296.399C167.533 296.14 168.05 296.181 168.449 296.598C170.495 298.734 170.568 301.578 170.45 303.535C170.357 305.07 169.294 307.606 166.989 306.907C165.024 306.317 163.984 304.13 163.597 302.674C163.201 301.188 163.638 300.673 164.262 299.691C164.567 299.217 164.811 298.735 165.201 298.323C165.536 297.965 166.398 297.693 166.603 297.257C166.734 296.966 167.113 297.324 166.895 296.967C166.705 296.656 164.915 295.927 164.643 295.787C162.942 294.905 161.531 293.883 159.943 292.679C158.945 291.92 155.876 290.099 156.27 288.882C156.734 287.467 160.493 289.076 161.836 290.01C164.447 291.816 167.38 295.091 168.638 297.635C168.759 297.876 168.687 298.092 168.54 298.202C167.739 298.808 165.694 298.371 164.492 298.358C162.647 298.335 161.007 298.646 159.025 298.363C156.599 298.013 151.661 296.815 150.34 293.746C149.075 290.814 153.746 291.525 155.666 291.83C159.86 292.497 163.62 293.75 167.765 296.682C168.654 297.315 168.094 298.213 167.208 297.59Z" fill="#3E1B1B"/>
<path d="M184.192 288.548C184.262 288.579 184.329 288.615 184.398 288.646C184.138 288.757 183.871 288.863 183.613 288.97C183.526 288.085 181.613 286.469 180.786 285.765C180.074 285.158 179.343 284.565 178.593 283.999C177.596 283.249 177.08 282.638 176.211 282.949C175.249 283.289 176.048 283.626 177.032 284.383C177.68 284.884 178.383 285.373 179.063 285.829C180.816 286.992 182.689 287.997 184.564 288.789C184.443 289.093 184.323 289.396 184.205 289.695C184.153 289.665 184.103 289.631 184.052 289.6C183.187 289.066 183.732 288.262 184.596 288.795C184.648 288.826 184.698 288.86 184.75 288.891C185.537 289.377 185.146 290.119 184.391 289.797C182.616 289.045 170.75 282.708 174.339 281.249C176.086 280.534 178.671 282.774 180.37 284.146C181.882 285.365 184.857 287.703 185.019 289.331C185.055 289.686 184.707 289.882 184.234 289.654C184.164 289.622 184.097 289.587 184.028 289.555C183.116 289.129 183.294 288.114 184.192 288.548Z" fill="#3E1B1B"/>
<path d="M183.448 287.611C183.504 287.62 183.561 287.629 183.617 287.637C183.993 287.698 184.297 287.898 184.555 288.261C187.116 291.823 188.53 295.182 188.155 298.45C187.925 300.469 186.621 302.996 183.841 302.005C180.62 300.857 180.317 297.813 180.635 295.784C180.888 294.196 181.156 292.721 181.743 291.351C182.258 290.135 183.571 289.606 183.818 288.167C184.185 288.572 184.552 288.978 184.911 289.378C184.816 289.382 184.728 289.392 184.636 289.391C183.731 289.441 183.13 287.869 184.025 287.819C184.12 287.814 184.208 287.805 184.3 287.806C184.834 287.773 185.48 288.558 185.393 289.017C185.153 290.41 184.106 291.117 183.489 292.207C182.684 293.652 182.303 295.438 182.092 297.267C182.075 297.643 182.068 298.019 182.051 298.395C182.918 299.138 183.775 299.88 184.642 300.622C185.056 300.721 185.662 299.909 185.838 299.683C186.468 298.846 186.656 297.646 186.606 296.394C186.508 293.765 185.201 291.25 183.291 288.587C183.601 288.792 183.918 289.004 184.229 289.21C184.172 289.201 184.115 289.192 184.059 289.183C183.088 289.033 182.467 287.46 183.448 287.611Z" fill="#3E1B1B"/>
<path d="M198.904 279.89C199.044 278.725 196.475 275.992 195.338 274.993C194.06 273.869 192.638 272.884 191.09 272.194C190.153 271.776 187.899 270.948 189.346 272.593C190.507 273.908 193.319 275.368 194.763 276.346C196.073 277.232 198.318 278.95 199.772 279.27C200.666 279.465 200.846 280.591 199.958 280.401C198.919 280.178 197.693 279.317 196.697 278.724C194.624 277.485 192.62 276.071 190.617 274.708C189.291 273.806 185.616 271.27 187.328 270.361C188.999 269.47 193.397 272.211 195.117 273.562C197.159 275.168 200.531 278.597 200.304 280.545C200.221 281.191 198.828 280.552 198.904 279.89Z" fill="#3E1B1B"/>
<path d="M197.739 278.756C197.757 278.725 197.778 278.69 197.796 278.66C198.29 279.052 198.783 279.444 199.281 279.847C198.201 281.745 197.166 283.635 196.647 285.935C196.445 286.819 196.163 287.787 196.151 288.773C196.141 290.244 197.602 293.366 199.432 292.216C201.307 291.044 200.448 287.079 199.552 284.51C199.255 283.661 198.757 280.716 198.131 280.075C197.272 279.195 198.257 278.476 199.115 279.356C199.939 280.208 200.065 281.187 200.322 282.102C200.977 284.43 201.712 286.712 202.019 288.981C202.341 291.33 201.568 294.443 198.969 294.316C196.2 294.178 194.698 290.793 194.549 288.659C194.278 284.716 196.219 281.434 197.793 278.665C198.187 277.981 199.668 279.157 199.278 279.852C199.26 279.882 199.24 279.918 199.222 279.948C198.828 280.632 197.342 279.445 197.739 278.756Z" fill="#3E1B1B"/>
<path d="M211.074 270.442C211.671 269.211 205.13 265.492 204.064 264.961C203.135 264.498 197.82 262.006 198.107 263.289C198.266 264.013 200.404 265.345 201.153 265.802C202.324 266.514 203.564 267.059 204.783 267.556C206.017 268.057 207.257 268.495 208.496 268.977C209.685 269.436 210.961 270.142 212.144 270.477C213.052 270.733 213.244 271.887 212.333 271.635C210.492 271.122 208.522 270.078 206.657 269.373C204.62 268.598 202.568 267.818 200.607 266.615C199.187 265.746 194.811 262.393 196.928 261.648C198.811 260.989 203.926 263.663 205.996 264.881C208.165 266.155 213.355 269.342 212.379 271.344C212.105 271.912 210.794 271.005 211.074 270.442Z" fill="#3E1B1B"/>
<path d="M210.974 268.488C212.403 267.885 214.889 271.498 215.715 272.702C218.069 276.144 218.062 279.673 216.775 281.997C215.622 284.086 212.074 281.493 211.03 279.047C210.176 277.035 210.149 274.947 209.664 272.978C209.209 271.122 209.677 269.924 209.672 268.27C209.668 267.42 211.188 268.219 211.188 269.058C211.195 269.95 210.879 270.659 210.906 271.567C210.936 272.552 211.248 273.56 211.516 274.608C211.814 275.769 211.852 276.836 212.101 277.979C212.311 278.928 212.415 279.098 213.228 280.081C213.777 281.171 214.283 281.362 214.753 280.644C215.343 280.586 215.624 280.273 215.599 279.701C216.387 278.126 216.247 276.031 214.974 273.781C214.818 273.503 212.214 269.791 211.898 269.919C211.196 270.224 210.268 268.783 210.974 268.488Z" fill="#3E1B1B"/>
<path d="M223.992 254.121C223.066 252.306 217.643 250.194 215.843 249.375C214.369 248.702 212.855 248.062 211.381 247.674C210.307 247.391 205.815 246.818 208.484 249.211C210.267 250.811 214.741 251.57 216.645 251.976C217.949 252.251 219.245 252.539 220.553 252.836C220.978 252.934 223.023 253.582 223.251 253.35C223.711 252.881 225.054 253.838 224.595 254.32C224.01 254.92 222.931 254.531 221.85 254.304C219.358 253.777 216.832 253.316 214.309 252.622C212.338 252.076 206.166 250.415 205.937 247.658C205.694 244.752 211.468 246.431 213.735 247.313C216.375 248.342 219.105 249.69 221.686 251.122C223.034 251.871 224.663 252.893 225.333 254.199C225.763 255.028 224.42 254.954 223.992 254.121Z" fill="#3E1B1B"/>
<path d="M223.225 250.765C223.182 250.714 223.143 250.673 223.1 250.622C222.686 250.148 222.758 249.438 223.449 249.69C225.091 250.289 226.962 251.925 228.39 253.102C230.137 254.534 231.723 256.17 232.965 257.91C234.347 259.846 235.202 262.577 233.36 263.294C231.33 264.082 227.911 260.869 226.714 258.884C225.6 257.047 225.104 255.092 224.229 253.239C223.571 251.84 222.835 250.357 222.957 249.102C222.987 248.808 223.396 248.69 223.772 248.901C223.841 248.94 223.911 248.979 223.987 249.023C224.903 249.541 224.732 250.667 223.809 250.144C223.74 250.105 223.67 250.065 223.594 250.022C223.865 249.956 224.138 249.886 224.409 249.82C224.241 251.481 225.975 253.97 226.692 255.804C227.129 256.929 227.461 258.099 228.264 259.215C229.071 260.341 231.086 262.221 232.225 261.9C234.283 261.318 231.751 257.939 230.396 256.444C229.403 255.342 228.274 254.318 227.073 253.39C226.145 252.671 224.665 251.325 223.636 250.951C223.752 250.641 223.868 250.33 223.985 250.02C224.028 250.07 224.067 250.112 224.11 250.163C224.817 250.96 223.923 251.561 223.225 250.765Z" fill="#3E1B1B"/>
<path d="M230.747 235.335C227.65 233.425 223.159 233.062 220.204 232.559C218.424 232.258 216.782 232.036 215.217 232.24C214.63 232.319 213.888 232.379 213.364 232.561C212.815 232.53 212.517 232.759 212.469 233.261C211.864 233.667 212.027 234.019 212.97 234.327C215.139 235.953 218.406 235.971 220.223 235.896C222.029 235.824 224.017 235.994 225.717 235.714C226.686 235.557 229.385 235.323 229.83 234.701C230.248 234.124 231.595 235.137 231.231 235.768C231.209 235.804 231.187 235.84 231.164 235.876C230.8 236.494 229.403 235.436 229.763 234.809C229.786 234.773 229.808 234.737 229.83 234.701C230.296 235.054 230.762 235.406 231.231 235.768C230.327 237.034 228.313 236.811 226.636 237.116C224.578 237.484 222.081 237.329 219.839 237.363C217.815 237.392 212.594 236.553 210.674 233.96C208.429 230.93 214.128 230.734 215.752 230.703C218.102 230.652 220.863 231.311 223.412 231.853C225.701 232.341 228.582 232.68 230.925 234.121C231.863 234.705 231.688 235.914 230.747 235.335Z" fill="#3E1B1B"/>
<path d="M229.127 230.373C231.075 230.911 233.126 232.236 234.98 233.302C237.364 234.67 239.704 236.101 241.989 237.647C244.072 239.055 248.595 243.247 247.055 244.819C245.66 246.251 241.075 242.708 239.441 241.36C237.698 239.921 236.113 238.365 234.714 236.739C233.928 235.823 233.313 234.898 232.594 233.978C232.032 233.259 230.883 231.678 230.078 231.16C230.256 230.898 230.433 230.636 230.62 230.374C230.669 230.408 230.712 230.437 230.761 230.471C231.59 231.032 231.056 231.819 230.218 231.256C230.17 231.223 230.127 231.194 230.078 231.16C229.243 230.594 229.772 229.827 230.62 230.374C232.353 231.494 233.454 233.448 234.563 234.92C236.575 237.59 239.352 240.373 242.403 242.416C242.889 242.743 243.958 243.556 244.533 243.604C246.616 243.774 245.297 242.24 244.617 241.342C243.367 239.686 241.711 238.598 239.895 237.404C238.38 236.412 236.85 235.48 235.29 234.578C233.441 233.505 231.276 232.034 229.319 231.496C228.42 231.249 228.229 230.126 229.127 230.373Z" fill="#3E1B1B"/>
<path d="M94.2568 242.746C95.1468 242.026 94.637 242.2 93.4868 242.452C92.0175 242.775 90.9883 243.608 89.8899 244.539C89.4896 244.875 88.4471 245.738 87.5975 246.562C89.8958 245.471 92.2462 244.379 94.2568 242.746Z" fill="#CBD0E3"/>
<path d="M87.0985 250.847C87.8852 250.974 89.7029 250.703 90.1274 250.727C91.651 250.814 92.9979 251.18 94.6134 251.089C96.3549 250.991 99.1629 250.581 100.903 249.275C103.971 246.968 99.1951 247.001 97.8214 247.151C94.1073 247.554 90.718 248.486 87.0985 250.847C87.0957 250.843 87.0985 250.847 87.0985 250.847Z" fill="#CBD0E3"/>
<path d="M89.737 255.413C90.0666 253.784 89.2243 252.496 88.4624 251.415C87.9511 250.694 87.2595 250.1 86.469 249.685C86.3468 249.649 86.2346 249.613 86.1333 249.561C86.1201 249.556 86.1 249.557 86.0838 249.546C85.4703 251.089 85.4972 252.964 85.4616 254.192C85.4376 255.248 85.641 256.729 86.3704 257.371C87.6916 258.523 89.3772 257.182 89.737 255.413Z" fill="#CBD0E3"/>
<path d="M69.3274 253.826C70.1868 253.107 71.0362 252.388 71.8957 251.669C71.8711 251.283 71.8565 250.896 71.832 250.509C71.5841 248.62 71.1718 246.76 70.324 245.242C69.9846 244.627 69.53 244.125 69.1346 243.57C68.0109 245.491 67.3073 247.39 67.2641 249.385C67.2387 250.668 67.4514 251.911 68.1033 252.802C68.2845 253.043 68.9081 253.902 69.3274 253.826Z" fill="#CBD0E3"/>
<path d="M74.7546 238.976C75.4213 238.561 76.1047 238.108 76.7364 237.644C77.6944 236.945 78.4795 236.645 77.5195 236.282C76.6473 235.956 76.1546 236.527 75.1825 237.219C74.4518 237.742 73.7399 238.291 73.0475 238.855C72.4433 239.345 71.2442 240.312 70.6538 241.129C72.0624 240.515 73.4451 239.79 74.7546 238.976Z" fill="#CBD0E3"/>
<path d="M54.2312 237.576C53.3793 240.154 52.5922 244.161 54.4992 245.452C56.3607 246.717 57.776 243.596 57.7314 242.099C57.7067 241.086 57.4007 240.094 57.178 239.175C56.7279 237.295 55.9587 235.666 55.1008 234.075C54.7184 235.222 54.4347 236.954 54.2312 237.576Z" fill="#CBD0E3"/>
<path d="M55.3366 231.772C56.6257 231.174 58.115 230.104 59.0897 229.475C60.5065 228.563 63.2725 227.223 64.4007 225.97C65.8074 224.401 63.5824 225.138 62.6592 225.517C61.1336 226.143 59.7396 227.063 58.4915 228.124C57.6452 228.845 56.0129 230.506 55.3366 231.772Z" fill="#CBD0E3"/>
<path d="M42.068 222.93C41.9844 222.936 41.8986 222.923 41.8173 222.884C41.5015 222.73 38.9469 226.449 38.7886 226.735C37.5515 229.01 37.4534 231.177 38.2799 232.847C38.2635 233.434 38.5571 233.778 39.1546 233.868C39.6419 234.632 40.153 234.465 40.685 233.361C41.4832 232.378 41.5846 232.207 41.78 231.238C42.011 230.069 42.0312 228.954 42.3014 227.77C42.5502 226.696 42.8514 225.66 42.8538 224.645C42.8599 224.137 42.7638 223.685 42.6744 223.229C42.3179 223.314 42.1205 223.163 42.068 222.93Z" fill="#CBD0E3"/>
<path d="M49.7118 218.155C48.742 218.605 43.2375 221.556 42.8339 222.996C43.6824 222.678 44.5502 222.273 45.3797 221.979C46.6031 221.547 47.8299 221.157 49.0485 220.705C50.2523 220.257 51.4762 219.762 52.6273 219.098C53.3707 218.668 55.4663 217.428 55.6106 216.715C55.8699 215.451 50.6214 217.733 49.7118 218.155Z" fill="#CBD0E3"/>
<path d="M26.729 206.595C25.5594 207.467 24.4569 208.444 23.4856 209.509C22.1713 210.952 19.7188 214.223 21.7799 214.898C22.9203 215.27 24.8875 213.475 25.6668 212.382C26.449 211.294 26.7482 210.14 27.1598 209.032C27.6244 207.779 28.5723 206.238 29.0409 204.85C28.2276 205.38 27.3518 206.125 26.729 206.595Z" fill="#CBD0E3"/>
<path d="M42.3291 200.928C40.8608 201.257 39.3579 201.843 37.8954 202.462C36.3683 203.108 32.2259 204.599 30.4951 206.139C30.5153 206.156 30.5424 206.156 30.5563 206.177C30.7902 206.424 32.8285 205.846 33.2477 205.773C34.552 205.529 35.8465 205.297 37.1438 205.07C39.0425 204.741 43.5069 204.166 45.2593 202.616C47.8885 200.306 43.4011 200.692 42.3291 200.928Z" fill="#CBD0E3"/>
<path d="M24.598 187.819C25.585 188.234 27.3807 188.492 28.1357 188.653C29.8444 189.018 31.8359 188.942 33.6519 189.109C35.4839 189.271 38.7613 189.415 40.8966 187.861C41.8366 187.592 41.9925 187.24 41.3776 186.795C41.3124 186.283 41.0049 186.03 40.4646 186.034C39.9381 185.827 39.1896 185.724 38.5985 185.614C37.024 185.328 35.3777 185.469 33.6015 185.695C31.0892 186.008 27.4702 186.163 24.5546 187.312C24.6423 187.44 24.6582 187.621 24.598 187.819Z" fill="#CBD0E3"/>
<path d="M13.9702 190.282C12.1669 191.429 10.5292 192.483 9.30607 194.126C8.64373 195.021 7.34601 196.533 9.43344 196.437C10.0042 196.413 11.0642 195.615 11.5486 195.303C14.5678 193.339 17.3056 190.594 19.2732 187.944C19.5852 187.526 19.8998 187.061 20.2231 186.596C19.6471 186.93 19.0798 187.263 18.5374 187.568C16.9917 188.436 15.4651 189.33 13.9702 190.282Z" fill="#CBD0E3"/>
<path d="M50.43 171.124C44.8235 176.935 43.1334 185.669 47.3419 188.789C51.6786 192.004 60.343 188.172 66.1561 183.038C72.0567 177.826 76.8566 169.74 77.8906 163.432C79.0918 156.125 74.7341 149.673 68.4484 148.526C54.0821 145.91 33.5185 166.145 25.8684 180.909C16.7877 198.422 20.7991 215.333 29.3939 224.728C34.9993 230.857 42.7777 234.863 51.4129 237.3C55.8382 238.552 60.5294 239.474 65.3789 240.003C70.1631 240.527 75.2497 239.899 80.2793 239.814C81.2138 239.795 81.8241 238.226 80.8897 238.246C77.2449 238.307 73.4224 238.9 69.8648 238.744C66.0222 238.577 62.3866 237.978 58.8266 237.282C51.9797 235.935 45.546 233.881 39.9828 230.678C29.0531 224.38 21.5888 213.114 22.3909 197.832C23.1449 183.49 34.2067 167.321 48.8866 156.601C56.984 150.691 66.2768 147.709 71.666 151.865C76.2033 155.365 78.0064 161.792 74.4922 169.481C70.8659 177.414 63.5839 185.856 55.127 187.908C50.7063 188.983 47.4087 187.863 46.7789 184.017C46.1741 180.333 47.6364 175.733 51.3897 171.839C52.2521 170.954 51.2785 170.25 50.43 171.124Z" fill="#3E1B1B"/>
<path d="M86.3682 250.59C90.2375 247.851 93.7905 246.722 97.6873 246.125C99.0682 245.916 103.818 245.667 100.714 248.054C98.9537 249.406 96.1475 249.934 94.4104 250.109C92.7989 250.271 91.4644 249.976 89.9481 249.961C89.4195 249.954 86.7149 250.507 86.5686 250.058C86.3465 249.359 89.5784 246.356 90.3801 245.588C91.5711 244.447 92.6762 243.44 94.235 243.004C95.4524 242.659 95.9977 242.44 95.0388 243.319C92.4521 245.696 89.3922 247.191 86.5001 248.843C85.5033 249.411 84.1817 250.26 84.7193 251.094C84.8667 251.323 85.3495 251.332 85.5854 251.432C86.317 251.738 86.9424 252.206 87.4079 252.78C88.0901 253.631 88.8357 254.654 88.5013 256.014C88.1435 257.485 86.5849 258.662 85.4008 257.771C84.7471 257.275 84.5842 256.061 84.6267 255.195C84.6916 253.861 84.6849 251.603 86.0255 250.207C85.6495 250.274 85.2708 250.337 84.8948 250.405C84.965 250.484 85.0315 250.573 85.1016 250.652C85.5252 251.176 86.8942 250.179 86.4651 249.646C86.395 249.567 86.3285 249.479 86.2583 249.399C86.0433 249.14 85.5264 249.181 85.1277 249.598C83.0817 251.734 83.0088 254.579 83.126 256.535C83.2196 258.071 84.2824 260.607 86.5873 259.908C88.5527 259.318 89.5928 257.13 89.9799 255.675C90.3754 254.188 89.9389 253.674 89.315 252.691C89.0094 252.217 88.7652 251.735 88.3759 251.323C88.0404 250.966 87.1786 250.694 86.9735 250.257C86.843 249.966 86.4638 250.324 86.6817 249.967C86.8719 249.656 88.662 248.927 88.9339 248.787C90.6349 247.906 92.0452 246.884 93.6332 245.679C94.6318 244.921 97.7006 243.099 97.3069 241.882C96.8426 240.467 93.0839 242.076 91.7409 243.01C89.1294 244.816 86.1967 248.091 84.9386 250.636C84.8175 250.877 84.8897 251.092 85.0367 251.202C85.8374 251.808 87.8827 251.372 89.0849 251.358C90.9294 251.335 92.5698 251.646 94.5521 251.364C96.9772 251.014 101.916 249.815 103.237 246.747C104.502 243.814 99.8306 244.525 97.9106 244.83C93.7165 245.498 89.9568 246.75 85.8117 249.683C84.9227 250.315 85.4829 251.214 86.3682 250.59Z" fill="#3E1B1B"/>
<path d="M69.3841 241.548C69.3145 241.58 69.2476 241.615 69.178 241.646C69.4387 241.757 69.7055 241.863 69.9635 241.97C70.0502 241.085 71.9629 239.469 72.7902 238.765C73.5021 238.158 74.2334 237.565 74.9831 236.999C75.9804 236.249 76.4968 235.638 77.3652 235.949C78.3278 236.289 77.5279 236.626 76.5447 237.383C75.8962 237.884 75.1932 238.373 74.5131 238.829C72.7599 239.992 70.8869 240.997 69.0123 241.79C69.1329 242.093 69.2535 242.396 69.3714 242.696C69.4234 242.665 69.4727 242.631 69.5247 242.6C70.3889 242.067 69.844 241.262 68.9797 241.795C68.9278 241.826 68.8784 241.86 68.8264 241.891C68.0388 242.377 68.4306 243.12 69.1855 242.797C70.9606 242.045 82.8263 235.708 79.2374 234.249C77.4901 233.534 74.9051 235.774 73.2065 237.146C71.6946 238.365 68.7194 240.703 68.5568 242.331C68.5214 242.686 68.8693 242.882 69.3424 242.654C69.4119 242.622 69.4789 242.587 69.5485 242.556C70.4603 242.129 70.2818 241.115 69.3841 241.548Z" fill="#3E1B1B"/>
<path d="M70.1284 240.611C70.0719 240.62 70.0154 240.629 69.9588 240.638C69.5829 240.698 69.2796 240.899 69.0211 241.261C66.4607 244.823 65.046 248.182 65.421 251.45C65.6513 253.469 66.9556 255.996 69.7348 255.006C72.9558 253.857 73.2597 250.813 72.9413 248.785C72.6881 247.196 72.4206 245.722 71.8334 244.351C71.3178 243.135 70.0049 242.606 69.758 241.167C69.3913 241.573 69.0246 241.978 68.6649 242.378C68.76 242.382 68.8482 242.392 68.9404 242.391C69.8452 242.441 70.4464 240.869 69.5515 240.819C69.4564 240.815 69.3682 240.805 69.276 240.806C68.7419 240.773 68.0959 241.558 68.1829 242.017C68.4231 243.411 69.4704 244.117 70.0867 245.207C70.8926 246.652 71.2737 248.439 71.484 250.268C71.5011 250.643 71.5082 251.02 71.5253 251.395C70.6584 252.138 69.8014 252.88 68.9345 253.623C68.5197 253.722 67.9139 252.909 67.7386 252.683C67.1082 251.847 66.9206 250.646 66.9702 249.394C67.068 246.766 68.3755 244.25 70.2854 241.587C69.9751 241.793 69.6579 242.004 69.3477 242.21C69.4042 242.201 69.4608 242.193 69.5173 242.184C70.4884 242.033 71.1095 240.46 70.1284 240.611Z" fill="#3E1B1B"/>
<path d="M54.6725 232.891C54.5325 231.725 57.1011 228.992 58.2386 227.993C59.5165 226.869 60.9382 225.884 62.4865 225.194C63.4233 224.776 65.6778 223.948 64.23 225.593C63.0689 226.908 60.2576 228.368 58.813 229.347C57.5035 230.232 55.2582 231.95 53.8045 232.271C52.9106 232.466 52.7303 233.592 53.6181 233.401C54.6569 233.178 55.883 232.317 56.8795 231.725C58.9521 230.485 60.9563 229.072 62.9596 227.708C64.2849 226.807 67.96 224.27 66.2487 223.362C64.5769 222.47 60.179 225.212 58.4591 226.562C56.4173 228.168 53.0453 231.598 53.2725 233.545C53.3553 234.191 54.7483 233.553 54.6725 232.891Z" fill="#3E1B1B"/>
<path d="M55.8367 231.756C55.8189 231.726 55.7981 231.69 55.7803 231.66C55.2865 232.052 54.7927 232.445 54.2949 232.847C55.3752 234.745 56.4096 236.635 56.9293 238.935C57.1309 239.819 57.413 240.788 57.4255 241.773C57.4349 243.245 55.9738 246.366 54.1436 245.217C52.2686 244.044 53.1277 240.079 54.0245 237.51C54.3207 236.661 54.8189 233.716 55.4456 233.076C56.3038 232.195 55.319 231.476 54.4608 232.357C53.6376 233.208 53.5114 234.187 53.2538 235.102C52.5987 237.43 51.8639 239.712 51.5573 241.981C51.2354 244.33 52.0079 247.443 54.6072 247.316C57.3763 247.179 58.8785 243.793 59.0268 241.659C59.298 237.717 57.3576 234.434 55.7832 231.665C55.3891 230.981 53.9078 232.157 54.2979 232.852C54.3157 232.883 54.3365 232.918 54.3543 232.948C54.7485 233.632 56.2338 232.445 55.8367 231.756Z" fill="#3E1B1B"/>
<path d="M42.5018 223.443C41.9047 222.212 48.4461 218.493 49.5122 217.962C50.4412 217.498 55.7561 215.007 55.4696 216.29C55.3099 217.013 53.1724 218.346 52.4227 218.803C51.2523 219.514 50.0122 220.06 48.7933 220.556C47.5595 221.057 46.3186 221.495 45.0803 221.977C43.8907 222.436 42.6151 223.142 41.4318 223.478C40.5241 223.734 40.3323 224.888 41.2425 224.636C43.0843 224.123 45.0538 223.078 46.9186 222.373C48.9559 221.598 51.0082 220.819 52.9689 219.616C54.3886 218.746 58.7651 215.393 56.6479 214.649C54.7648 213.99 49.6502 216.664 47.5799 217.881C45.4115 219.156 40.2205 222.343 41.1969 224.345C41.4711 224.912 42.7822 224.005 42.5018 223.443Z" fill="#3E1B1B"/>
<path d="M42.6023 221.488C41.1728 220.885 38.6865 224.498 37.8609 225.702C35.507 229.144 35.5138 232.673 36.8012 234.998C37.9539 237.087 41.5016 234.493 42.5456 232.047C43.4005 230.036 43.4265 227.948 43.9117 225.979C44.3668 224.122 43.8994 222.925 43.904 221.27C43.9079 220.421 42.3876 221.219 42.3877 222.058C42.3807 222.951 42.6966 223.659 42.6696 224.568C42.6403 225.553 42.328 226.561 42.0603 227.609C41.7624 228.77 41.724 229.837 41.4748 230.98C41.2647 231.929 41.161 232.098 40.3481 233.081C39.7992 234.172 39.2926 234.362 38.8225 233.645C38.2326 233.587 37.9515 233.274 37.9767 232.702C37.1887 231.127 37.329 229.031 38.6022 226.782C38.7581 226.503 41.362 222.791 41.6783 222.919C42.3802 223.224 43.308 221.783 42.6023 221.488Z" fill="#3E1B1B"/>
<path d="M29.5835 207.122C30.51 205.307 35.9327 203.195 37.7329 202.375C39.2073 201.703 40.7213 201.062 42.1955 200.674C43.269 200.392 47.7617 199.819 45.092 202.212C43.3088 203.812 38.8353 204.57 36.9309 204.976C35.627 205.252 34.3311 205.539 33.0226 205.836C32.5985 205.934 30.5532 206.582 30.3245 206.35C29.8646 205.882 28.522 206.839 28.981 207.32C29.5661 207.921 30.6445 207.532 31.726 207.304C34.2181 206.777 36.7443 206.317 39.2669 205.622C41.2386 205.077 47.4105 203.415 47.6394 200.658C47.8823 197.752 42.1079 199.431 39.8413 200.314C37.2009 201.342 34.4709 202.69 31.8905 204.123C30.5423 204.872 28.9131 205.893 28.2433 207.2C27.8128 208.029 29.1558 207.955 29.5835 207.122Z" fill="#3E1B1B"/>
<path d="M30.3505 203.765C30.3936 203.715 30.433 203.673 30.4761 203.622C30.8895 203.148 30.8179 202.439 30.1272 202.691C28.4846 203.289 26.6139 204.925 25.1858 206.102C23.4392 207.535 21.8531 209.17 20.6104 210.911C19.2291 212.847 18.3734 215.577 20.2154 216.294C22.2459 217.082 25.665 213.87 26.8622 211.884C27.9758 210.047 28.4716 208.092 29.3472 206.24C30.0046 204.84 30.7408 203.358 30.6187 202.103C30.589 201.809 30.18 201.691 29.8042 201.901C29.7347 201.94 29.6652 201.979 29.5893 202.023C28.673 202.542 28.8441 203.667 29.7667 203.144C29.8362 203.105 29.9057 203.066 29.9816 203.022C29.711 202.956 29.4377 202.886 29.1671 202.82C29.3349 204.482 27.6009 206.971 26.8841 208.805C26.4468 209.929 26.1151 211.099 25.312 212.216C24.5053 213.341 22.4894 215.221 21.3507 214.9C19.2928 214.319 21.8252 210.939 23.1799 209.445C24.1726 208.342 25.3017 207.319 26.5025 206.391C27.4306 205.671 28.9105 204.325 29.9401 203.952C29.8238 203.641 29.7075 203.331 29.5912 203.02C29.5482 203.071 29.5087 203.112 29.4657 203.163C28.7589 203.96 29.6528 204.562 30.3505 203.765Z" fill="#3E1B1B"/>
<path d="M22.8288 188.335C25.9264 186.425 30.417 186.063 33.3723 185.56C35.1517 185.259 36.7942 185.037 38.3592 185.241C38.9466 185.32 39.6884 185.38 40.2123 185.562C40.7608 185.531 41.0596 185.76 41.1076 186.262C41.712 186.668 41.5492 187.019 40.6059 187.328C38.4373 188.954 35.1705 188.972 33.3528 188.896C31.5472 188.825 29.5588 188.994 27.8588 188.715C26.89 188.557 24.1908 188.323 23.7456 187.701C23.3284 187.125 21.9815 188.137 22.3448 188.769C22.3672 188.805 22.3895 188.841 22.4119 188.877C22.7762 189.494 24.1733 188.436 23.8127 187.809C23.7904 187.773 23.768 187.737 23.7456 187.701C23.28 188.054 22.8143 188.407 22.3448 188.769C23.2492 190.034 25.2633 189.812 26.9396 190.116C28.9984 190.485 31.4946 190.33 33.7368 190.364C35.7608 190.393 40.982 189.553 42.9021 186.961C45.1472 183.931 39.4483 183.735 37.8241 183.703C35.4738 183.653 32.7133 184.311 30.1641 184.853C27.8748 185.342 24.9938 185.68 22.6512 187.121C21.713 187.705 21.8878 188.915 22.8288 188.335Z" fill="#3E1B1B"/>
<path d="M24.4487 183.373C22.5007 183.911 20.4502 185.237 18.5963 186.302C16.2117 187.67 13.8717 189.101 11.587 190.648C9.50421 192.056 4.98048 196.247 6.52117 197.82C7.9156 199.251 12.5012 195.709 14.1352 194.36C15.8776 192.922 17.4632 191.365 18.8623 189.739C19.648 188.823 20.2631 187.898 20.9822 186.979C21.5441 186.26 22.6931 184.679 23.4984 184.161C23.3205 183.898 23.1426 183.636 22.956 183.375C22.907 183.408 22.8642 183.437 22.8152 183.471C21.9863 184.033 22.52 184.819 23.3576 184.257C23.4066 184.223 23.4494 184.194 23.4984 184.161C24.3334 183.595 23.8042 182.827 22.956 183.375C21.2229 184.494 20.1216 186.449 19.0127 187.92C17.0013 190.59 14.2234 193.373 11.1727 195.417C10.6866 195.744 9.61817 196.557 9.04249 196.605C6.95934 196.775 8.279 195.241 8.95881 194.343C10.2092 192.687 11.8644 191.598 13.6814 190.405C15.1959 189.413 16.7261 188.481 18.2862 187.578C20.1348 186.506 22.3006 185.035 24.2574 184.497C25.1557 184.25 25.3471 183.126 24.4487 183.373Z" fill="#3E1B1B"/>
</svg>
