<svg width="191" height="180" viewBox="0 0 191 180" fill="none" xmlns="http://www.w3.org/2000/svg">
<path fill-rule="evenodd" clip-rule="evenodd" d="M95.3661 175.082C74.3361 174.963 59.8665 155.89 44.059 142.711C29.0208 130.173 11.0849 118.817 5.95823 100.537C0.844498 82.3033 8.40022 63.4017 17.0733 46.4885C25.1341 30.7694 35.8101 14.4759 53.1832 8.44513C69.5154 2.7757 86.1122 16.2273 103.548 16.4706C122.215 16.731 140.936 2.04298 157.693 9.90326C174.803 17.9292 182.533 37.6161 186.274 55.2766C189.855 72.1811 184.997 89.1924 177.834 104.988C170.925 120.225 159.402 132.207 146.364 143.289C130.849 156.476 116.308 175.2 95.3661 175.082Z" fill="#D9BDBD"/>
</svg>
