<svg width="114" height="124" viewBox="0 0 114 124" fill="none" xmlns="http://www.w3.org/2000/svg">
<path fill-rule="evenodd" clip-rule="evenodd" d="M93.1292 52.984C96.7513 62.028 107.499 69.2759 105.461 78.6631C103.446 87.941 91.1448 88.9682 84.0525 94.7813C76.3934 101.059 72.0758 112.71 62.3204 114.022C52.3231 115.366 43.0178 107.971 34.8728 101.396C26.8208 94.8959 19.8617 86.9116 16.4049 76.9572C12.867 66.7691 12.9871 55.8657 15.4774 45.5434C18.1039 34.6569 21.8516 23.0942 30.841 17.1208C39.6982 11.2352 51.3429 12.4445 61.8255 14.7455C70.9482 16.748 79.5023 21.6626 85.6296 29.1473C90.9935 35.6995 89.9558 45.0605 93.1292 52.984Z" fill="#D9BDBD"/>
</svg>
